<svg width="42" height="26" viewBox="0 0 42 26" fill="none" xmlns="http://www.w3.org/2000/svg">
<path d="M1 15.4298V14.9627L2.18252 14.0543C2.18252 14.0543 2.18252 13.146 2.18252 13.0421C2.18252 12.9383 2.18252 12.3674 2.18252 12.3674L1.96161 11.9911C1.96161 11.9911 4.06675 10.5507 4.17071 10.4598C4.27467 10.356 5.86002 9.44767 5.86002 9.44767L7.09452 9.05838C7.09452 9.05838 8.51094 8.99349 8.74485 9.05838C8.97875 9.12326 10.9929 9.12326 10.9929 9.12326L11.6297 8.75992L13.8518 7.68287L16.3338 7.0081H18.179L20.5051 7.47525H24.0266L27.0154 7.0081L28.055 6.41118L29.1725 5.84022L28.068 5.71045C28.068 5.71045 28.3279 5.25628 28.3539 5.21735C28.3799 5.17842 29.0556 4.81508 29.0556 4.81508L29.8483 4.3609H28.8607C28.8607 4.3609 29.4974 3.84184 29.5624 3.73803C29.6273 3.63422 30.0432 3.46553 30.0432 3.46553L30.8099 3.30981L31.9534 2.73884L32.6551 1.76561C32.6551 1.76561 33.4348 1.49311 33.5647 1.49311C33.6947 1.49311 34.0066 1.49311 34.1365 1.49311C34.2665 1.49311 34.9942 1 34.9942 1L35.6179 1.51906L36.9564 2.19383L38.3728 3.29683L38.8146 4.1403L40.6339 5.72343L41.1277 6.57988L40.8028 7.51418L40.4 7.64394L39.7242 7.81264L39.1395 7.47525L37.3982 7.07298L36.5925 6.60583L35.254 6.50202L34.1885 7.11191L33.0709 10.0576L32.902 11.7315L32.6291 12.8086L32.2263 13.4833L35.6959 14.6642L38.1779 16.416L40.1661 17.7915L40.231 18.3236L41.1277 19.0243L41.3616 19.8029L39.8932 20.0365L39.0485 18.5831L38.2038 17.7786L35.7868 16.0008H34.6043L34.2665 17.3114L32.954 18.9205H32.3173L31.0698 19.6342V18.3755L31.4076 18.077H32.2133L32.889 17.4412L33.2919 16.8702V16.0008L31.7455 15.5336L29.5624 16.0786L28.2369 15.8321L26.8075 16.455C26.8075 16.455 22.1684 15.5726 22.0644 15.5077C21.9605 15.4428 20.5181 14.9756 20.5181 14.9756L19.8813 15.0405H19.5175L20.2712 16.6885L21.2717 18.1289L24.7413 19.8418L25.456 20.2571L25.56 20.5425L26.6386 20.9708L26.8595 21.3471L25.677 21.8142L24.7283 21.2303C24.7283 21.2303 23.4938 20.5296 23.4029 20.5036C23.2989 20.4647 21.8565 19.5563 21.8565 19.5563C21.8565 19.5563 19.7514 19.167 19.7514 19.0762C19.7514 18.9724 18.5039 17.4022 18.4389 17.2854C18.3739 17.1687 17.2174 15.6245 17.2174 15.6245L16.5027 15.2092L15.762 17.6618L14.1766 20.0105L14.2416 20.8799L15.4501 23.3974L16.4637 24.4744L16.1648 24.8118H14.7484L14.1117 23.7347V23.2027L12.3444 20.1403V19.4655L12.6822 18.8816L13.4619 17.1557L13.5919 16.0527C13.5919 16.0527 11.9415 14.21 11.8376 14.0673C11.7336 13.9375 11.1619 11.7185 11.1619 11.7185V10.382C11.1619 10.382 10.6941 10.382 10.5901 10.343C10.4861 10.3041 9.25164 10.8751 9.25164 10.8751C9.04372 10.8751 9.04373 10.8751 9.04373 10.8751L7.56233 11.2384L6.50976 11.8483L5.44419 12.6269L4.30066 12.4582L3.456 13.1979L2.61135 14.6512L1.81867 15.3779L1 15.4298Z" fill="#001A72"/>
<path d="M1.00001 24.8118H41.3615M1 15.4298V14.9627L2.18252 14.0543C2.18252 14.0543 2.18252 13.146 2.18252 13.0421C2.18252 12.9383 2.18252 12.3674 2.18252 12.3674L1.96161 11.9911C1.96161 11.9911 4.06675 10.5507 4.17071 10.4598C4.27467 10.356 5.86002 9.44767 5.86002 9.44767L7.09452 9.05838C7.09452 9.05838 8.51094 8.99349 8.74485 9.05838C8.97875 9.12326 10.9929 9.12326 10.9929 9.12326L11.6297 8.75992L13.8518 7.68287L16.3338 7.0081H18.179L20.5051 7.47525H24.0266L27.0154 7.0081L28.055 6.41118L29.1725 5.84022L28.068 5.71045C28.068 5.71045 28.3279 5.25628 28.3539 5.21735C28.3799 5.17842 29.0556 4.81508 29.0556 4.81508L29.8483 4.3609H28.8607C28.8607 4.3609 29.4974 3.84184 29.5624 3.73803C29.6273 3.63422 30.0432 3.46553 30.0432 3.46553L30.8099 3.30981L31.9534 2.73884L32.6551 1.76561C32.6551 1.76561 33.4348 1.49311 33.5647 1.49311C33.6947 1.49311 34.0066 1.49311 34.1365 1.49311C34.2665 1.49311 34.9942 1 34.9942 1L35.6179 1.51906L36.9564 2.19383L38.3728 3.29683L38.8146 4.1403L40.6339 5.72343L41.1277 6.57988L40.8028 7.51418L40.4 7.64394L39.7242 7.81264L39.1395 7.47525L37.3982 7.07298L36.5925 6.60583L35.254 6.50202L34.1885 7.11191L33.0709 10.0576L32.902 11.7315L32.6291 12.8086L32.2263 13.4833L35.6959 14.6642L38.1779 16.416L40.1661 17.7915L40.231 18.3236L41.1277 19.0243L41.3616 19.8029L39.8932 20.0365L39.0485 18.5831L38.2039 17.7786L35.7868 16.0008H34.6043L34.2665 17.3114L32.954 18.9205H32.3173L31.0698 19.6342V18.3755L31.4076 18.077H32.2133L32.889 17.4412L33.2919 16.8702V16.0008L31.7455 15.5336L29.5624 16.0786L28.2369 15.8321L26.8075 16.455C26.8075 16.455 22.1684 15.5726 22.0644 15.5077C21.9605 15.4428 20.5181 14.9756 20.5181 14.9756L19.8813 15.0405H19.5175L20.2712 16.6885L21.2717 18.1289L24.7413 19.8418L25.456 20.2571L25.56 20.5425L26.6386 20.9708L26.8595 21.3471L25.677 21.8142L24.7283 21.2303C24.7283 21.2303 23.4938 20.5296 23.4029 20.5036C23.2989 20.4647 21.8565 19.5563 21.8565 19.5563C21.8565 19.5563 19.7514 19.167 19.7514 19.0762C19.7514 18.9724 18.5039 17.4022 18.4389 17.2854C18.3739 17.1687 17.2174 15.6245 17.2174 15.6245L16.5027 15.2092L15.762 17.6618L14.1766 20.0105L14.2416 20.8799L15.4501 23.3974L16.4637 24.4744L16.1648 24.8118H14.7484L14.1117 23.7347V23.2027L12.3444 20.1403V19.4655L12.6822 18.8816L13.4619 17.1557L13.5919 16.0527C13.5919 16.0527 11.9415 14.21 11.8376 14.0673C11.7336 13.9375 11.1619 11.7186 11.1619 11.7186V10.382C11.1619 10.382 10.6941 10.382 10.5901 10.343C10.4861 10.3041 9.25164 10.8751 9.25164 10.8751C9.04372 10.8751 9.04373 10.8751 9.04373 10.8751L7.56233 11.2384L6.50976 11.8483L5.44419 12.6269L4.30066 12.4582L3.456 13.1979L2.61135 14.6512L1.81867 15.3779L1 15.4298Z" stroke="#001A72" stroke-width="0.427106"/>
</svg>
