<svg width="1200" height="630" viewBox="0 0 1200 630" fill="none" xmlns="http://www.w3.org/2000/svg">
<g clip-path="url(#clip0_105_33023)">
<rect width="1200" height="630" fill="white"/>
<g clip-path="url(#clip1_105_33023)">
<rect width="1200" height="898.081" transform="translate(0 -49)" fill="url(#paint0_linear_105_33023)"/>
<rect width="1200" height="898.081" transform="translate(0 -49)" fill="url(#paint1_linear_105_33023)"/>
<path d="M432.167 390.701C413.389 400.09 456.58 408.54 467.847 410.418H557.045C609.156 410.418 626.526 402.907 670.656 395.395C714.785 387.884 809.148 402.907 875.342 410.418C941.537 417.93 992.709 399.151 995.525 390.701C998.342 382.25 883.793 370.983 804.453 375.678C725.114 380.372 725.583 363.941 650.938 357.369C576.293 350.796 584.743 370.983 548.595 370.983C512.446 370.983 502.118 371.922 477.705 370.983C453.293 370.044 450.946 381.311 432.167 390.701Z" fill="url(#paint2_linear_105_33023)" fill-opacity="0.5"/>
<path d="M88.8531 557.52C55.521 551.417 52.2348 550.008 5.28828 579.115C-6.44834 593.669 -45.8834 594.138 -69.3567 597.894C-92.8299 601.649 -59.0284 645.31 17.0249 647.188C93.0782 649.065 223.59 637.329 293.54 616.203C363.49 595.077 378.982 616.203 433.91 635.451C488.837 654.699 620.757 639.676 780.375 616.203C939.993 592.73 860.184 579.115 850.325 569.256C840.467 559.398 716.058 579.115 710.425 543.905C704.791 508.695 649.864 543.905 573.81 522.779C497.757 501.653 472.875 483.814 390.719 481.936C308.563 480.058 291.662 518.554 232.979 543.905C174.296 569.256 122.185 563.623 88.8531 557.52Z" fill="url(#paint3_linear_105_33023)" fill-opacity="0.5"/>
<circle cx="791.939" cy="1.27226" r="160.92" transform="rotate(-52.7839 791.939 1.27226)" fill="url(#paint4_linear_105_33023)"/>
<path d="M1029.34 212.493C1057.81 7.52891 400.936 -46.351 192.746 -52.6974C378.118 -76.0108 1091.25 -113.195 1263.78 -66.8791C1479.44 -8.98413 1467.96 351.583 1300.73 432.028C1139.59 509.545 253.045 523.339 377.512 567.635C521.084 618.729 378.118 725 154.582 725C-36.8478 725 -438.688 692.037 -576 654.088C-304.203 685.561 302.394 630.386 86.7332 557.337C-170.15 470.326 408.407 462.724 453.841 462.724C699.186 456.701 1004.02 394.786 1029.34 212.493Z" fill="url(#paint5_linear_105_33023)"/>
<path d="M-18.4574 166.859C-28.7856 183.76 -63.5616 187.515 -76.2016 194.088C-85.9038 198.627 -105.59 212.116 -106.717 229.768C-108.125 251.833 -67.7512 239.627 12.0579 229.768C91.8669 219.909 120.974 227.89 231.298 229.768C341.622 231.646 351.951 222.726 450.538 248.077C549.126 273.428 584.805 226.012 649.122 194.088C713.439 162.165 504.996 180.474 467.439 166.859C429.882 153.245 402.653 149.959 385.752 132.589C368.851 115.218 309.229 115.688 246.321 115.688C183.413 115.688 174.962 132.589 137.875 132.589C100.787 132.589 63.2296 129.302 41.1647 132.589C19.0998 135.875 -8.12913 149.959 -18.4574 166.859Z" fill="url(#paint6_linear_105_33023)" fill-opacity="0.6"/>
<circle cx="404.965" cy="47.145" r="0.93893" fill="white"/>
<circle cx="237.835" cy="21.7939" r="0.93893" fill="white"/>
<circle cx="14.3697" cy="73.435" r="1.87786" fill="white"/>
<circle cx="656.128" cy="97.3776" r="3.28626" fill="white"/>
<circle cx="832.178" cy="41.5112" r="0.93893" fill="white"/>
<path d="M50.0488 59.8209C46.8514 59.8209 45.8238 57.0041 45.8236 55.5957C45.8236 58.882 43.1634 59.8209 41.5986 59.8209C45.3544 59.8209 45.8238 62.6377 45.8236 64.0461C45.8238 60.7598 48.6406 59.8209 50.0488 59.8209Z" fill="white"/>
<path d="M448.155 36.3473C444.958 36.3473 443.93 33.5305 443.93 32.1221C443.93 35.4083 441.27 36.3473 439.705 36.3473C443.461 36.3473 443.93 39.164 443.93 40.5724C443.93 37.2862 446.747 36.3473 448.155 36.3473Z" fill="white"/>
<path d="M139.247 59.8209C136.05 59.8209 135.022 57.0041 135.022 55.5957C135.022 58.882 132.362 59.8209 130.797 59.8209C134.553 59.8209 135.022 62.6377 135.022 64.0461C135.022 60.7598 137.839 59.8209 139.247 59.8209Z" fill="white"/>
<path d="M581.483 107.706C578.286 107.706 577.258 104.889 577.258 103.48C577.258 106.767 574.598 107.706 573.033 107.706C576.789 107.706 577.258 110.522 577.258 111.931C577.258 108.645 580.075 107.706 581.483 107.706Z" fill="white"/>
<path d="M703.544 59.8209C700.347 59.8209 699.319 57.0041 699.319 55.5957C699.319 58.882 696.659 59.8209 695.094 59.8209C698.85 59.8209 699.319 62.6377 699.319 64.0461C699.319 60.7598 702.136 59.8209 703.544 59.8209Z" fill="white"/>
<path d="M589.934 10.9962C586.736 10.9962 585.709 8.17939 585.708 6.771C585.708 10.0573 583.048 10.9962 581.483 10.9962C585.239 10.9962 585.709 13.813 585.708 15.2214C585.709 11.9351 588.525 10.9962 589.934 10.9962Z" fill="white"/>
<path fill-rule="evenodd" clip-rule="evenodd" d="M1058.92 351.49V355.12L1052.26 360.565C1049.64 360.767 1043.06 362.501 1037.74 367.825C1032.42 373.149 1029.07 374.48 1028.06 374.48C1029.03 375.448 1032.09 375.69 1033.51 375.69C1032.54 378.11 1028.26 381.135 1026.25 382.345C1026.73 383.313 1030.08 383.959 1031.69 384.16C1027.82 389.484 1014.35 394.445 1008.1 396.26C1010.52 396.865 1017.98 395.857 1020.2 395.05C1014.87 399.406 1001.04 402.512 994.785 403.52C993.575 403.722 991.881 404.125 994.785 404.125H1009.31C986.315 410.579 933.922 421.307 908.27 412.595C882.618 403.883 864.508 407.755 858.66 410.78L829.62 420.46C823.368 423.082 807.84 427.841 795.74 425.905C783.64 423.969 776.582 423.889 774.565 424.09C772.595 425.357 771.784 425.209 767.035 424.347C764.977 423.973 762.18 423.465 758.23 422.88C745.162 420.944 727.375 429.535 724.35 431.955C729.674 432.439 733.425 436.997 734.635 439.215C731.731 438.731 722.535 440.627 718.3 441.635C721.728 442.644 729.19 445.023 731.61 446.475C734.03 447.927 740.685 454.34 743.71 457.365C740.08 457.365 729.795 464.02 730.4 464.02C730.503 464.02 730.763 463.985 731.15 463.933C733.043 463.679 737.98 463.016 742.5 464.02C747.945 465.23 761.86 465.835 763.675 465.23C765.127 464.746 769.523 462.205 771.54 460.995C786.717 458.058 794.367 452.743 798.977 449.54C800.064 448.785 800.982 448.147 801.79 447.685C805.496 445.568 812.444 442.987 817.365 441.159C818.068 440.898 818.73 440.652 819.335 440.425C823.207 438.973 831.435 431.754 835.065 428.325C832.04 433.367 826.474 445.507 828.41 453.735C830.346 461.963 838.897 468.86 842.93 471.28C843.38 471.345 844.036 471.503 844.798 471.784C844.78 471.817 844.762 471.851 844.745 471.885C842.93 475.515 841.72 476.725 836.88 479.75C834.016 481.54 828.823 482.059 823.806 482.56C820.344 482.906 816.965 483.244 814.495 483.985C809.384 485.519 809.886 488.347 810.165 489.918C810.216 490.206 810.26 490.452 810.26 490.64C810.26 491.85 818.125 499.11 820.545 500.925C821.881 501.927 825.983 507.17 829.898 512.175C833.076 516.236 836.13 520.14 837.485 521.495C839.772 523.782 839.293 526.07 838.922 527.834C838.803 528.403 838.695 528.918 838.695 529.36C838.695 530.812 840.712 531.982 841.72 532.385C842.93 533.394 844.745 535.531 842.325 536.015C839.905 536.499 838.493 538.637 838.09 539.645C836.154 546.905 845.35 553.56 850.19 555.98C850.392 555.375 850.674 553.681 850.19 551.745C849.983 550.917 850.059 547.682 850.152 543.735C850.331 536.144 850.572 525.921 848.98 525.125C847.767 524.519 846.097 521.479 844.658 518.369C846.728 518.807 849.406 519.348 851.4 519.68C855.03 520.285 871.365 526.335 877.415 529.36C882.255 531.78 885.078 535.612 885.885 537.225H890.725C890.725 537.629 890.967 538.677 891.935 539.645C893.145 540.855 891.33 542.67 890.725 542.67C890.12 542.67 888.91 546.3 888.91 547.51C888.91 548.478 896.573 551.947 900.405 553.56C901.413 553.56 903.551 553.318 904.035 552.35C904.519 551.382 903.833 545.494 903.43 542.67C902.825 542.469 901.252 541.581 899.8 539.645C898.348 537.709 896.775 531.175 896.17 528.15L894.96 526.335C892.943 525.932 888.547 525.125 887.095 525.125C885.643 525.125 872.373 517.462 865.92 513.63C864.71 512.42 863.5 509.395 864.105 507.58C864.71 505.765 868.34 501.53 870.76 499.715C873.18 497.9 887.7 485.195 888.91 483.985C890.12 482.775 896.17 482.775 899.195 482.775C901.247 482.775 912.202 486.671 922.438 490.31C927.295 492.037 931.99 493.707 935.495 494.875C942.068 497.066 954.592 498.155 963.622 498.94C969.552 499.456 973.975 499.841 974.215 500.32C974.82 501.53 971.795 507.58 969.98 509.395C969.727 509.648 969.263 510.077 968.637 510.656L968.636 510.657C966.282 512.832 961.637 517.124 957.305 522.144L957.275 522.1C956.872 521.899 955.581 521.495 953.645 521.495C951.225 521.495 943.965 522.705 942.755 523.31C941.787 523.794 940.335 525.125 939.73 525.73C941.142 526.537 944.328 528.271 945.78 528.755C946.477 528.987 948.153 530.556 949.989 532.435C945.07 541.69 935.273 550.445 932.948 552.522C932.694 552.749 932.53 552.896 932.47 552.955C931.865 553.56 930.05 555.375 930.05 556.585C930.05 557.236 926.899 559.638 923.798 562.001C921.135 564.03 918.509 566.032 917.95 566.87C917.043 568.231 917.496 568.572 918.29 569.167C918.555 569.366 918.858 569.593 919.16 569.895C920.37 571.105 919.16 577.155 917.95 579.575L914.925 585.625C914.32 586.634 913.473 588.892 914.925 589.86C916.74 591.07 933.075 590.465 933.075 589.86C933.075 589.425 931.823 587.112 930.895 585.398C930.533 584.728 930.22 584.15 930.05 583.81C929.74 583.189 928.951 583.046 928.094 582.891C927.28 582.743 926.404 582.584 925.815 581.995C924.605 580.785 925.21 575.945 925.815 574.735C926.42 573.525 928.235 571.105 930.05 568.685C931.865 566.265 932.47 565.055 933.075 563.845C933.68 562.635 948.805 546.905 950.015 545.695L956.378 539.332C956.522 539.489 956.621 539.596 956.67 539.645C957.073 540.049 960.434 540.721 963.347 541.303L963.348 541.304C964.804 541.595 966.149 541.864 966.955 542.065C967.967 542.318 970.142 543.206 972.464 544.153C975.695 545.471 979.209 546.905 980.265 546.905C980.897 546.905 982.773 547.125 985.002 547.386C989.181 547.875 994.601 548.51 995.39 548.115C996.358 547.631 1000.63 545.897 1002.65 545.09C1003.46 543.275 1004.83 539.161 1003.86 537.225C1002.65 534.805 1002.65 525.125 1002.65 520.89C1002.65 517.508 1003.45 507.009 1003.86 502.158C1011.89 498.574 1026.58 491.399 1028.06 489.43C1029.51 487.494 1033.1 474.91 1034.72 468.86C1036.53 464.827 1041.13 455.913 1045 452.525C1049.07 448.96 1054.44 437.247 1056.75 432.189L1056.75 432.186C1057.19 431.237 1057.51 430.523 1057.71 430.14C1058.1 429.357 1058.61 427.625 1059.3 425.332L1059.3 425.33C1060.73 420.535 1062.9 413.289 1066.18 407.15C1071.02 398.075 1080.7 399.285 1084.33 399.89C1086.19 400.2 1092.18 401.782 1097.74 403.25C1103.03 404.646 1107.94 405.94 1108.53 405.94C1109.74 405.94 1112.76 408.36 1114.58 410.175C1116.39 411.99 1121.23 410.175 1122.44 408.965C1123.15 408.256 1124.27 407.548 1125.2 406.96C1125.86 406.545 1126.42 406.191 1126.68 405.94C1127.28 405.335 1128.49 400.495 1128.49 398.68C1128.49 396.865 1127.28 394.445 1124.86 392.63C1122.44 390.815 1104.29 374.48 1101.87 372.06C1099.45 369.64 1087.35 359.355 1082.51 356.935C1077.67 354.515 1065.57 351.49 1063.76 351.49H1058.92ZM841.819 511.496C841.877 510.596 842.029 509.839 842.325 509.395C842.955 508.451 846.043 506.031 848.945 503.757C851.619 501.662 854.135 499.69 854.425 499.11C854.909 498.142 855.03 496.287 855.03 495.48C855.009 495.287 854.986 495.087 854.961 494.879L832.645 496.085C832.645 497.497 832.766 500.441 833.25 500.925C833.855 501.53 841.115 509.395 841.72 511.21C841.746 511.289 841.779 511.384 841.819 511.496ZM971.19 536.015C969.157 535.202 966.84 533.293 964.641 531.069L975.425 520.285C978.38 518.069 982.892 514.761 987.287 511.687C987.316 512.235 987.361 512.802 987.404 513.347C987.466 514.137 987.525 514.879 987.525 515.445C987.525 516.897 989.542 522.907 990.55 525.73C991.558 527.747 993.454 532.627 992.97 536.015C992.486 539.403 987.122 539.444 984.5 539.04C982.08 538.839 976.03 537.951 971.19 536.015Z" fill="#001A72" stroke="#001A72" stroke-width="1.21"/>
</g>
<path d="M75.7739 366.421L67.4309 339.002H73.463L77.9283 354.318C78.1111 354.866 78.2677 355.467 78.3983 356.119C78.555 356.746 78.6725 357.36 78.7508 357.96C78.8553 358.535 78.9336 359.083 78.9858 359.605C79.0642 360.102 79.1295 360.519 79.1817 360.859L78.2416 360.82C78.4766 359.723 78.6725 358.809 78.8292 358.078C78.9858 357.321 79.1295 356.655 79.26 356.08C79.4167 355.48 79.5995 354.879 79.8084 354.278L84.117 342.958H88.974L93.2043 354.278C93.5177 355.062 93.7658 355.819 93.9485 356.55C94.1575 357.255 94.3272 357.947 94.4578 358.626C94.5883 359.279 94.7189 359.945 94.8494 360.624L93.9877 360.781C94.0661 360.232 94.1183 359.762 94.1444 359.37C94.1966 358.953 94.2358 358.574 94.2619 358.234C94.3141 357.895 94.3664 357.556 94.4186 357.216C94.4708 356.851 94.5491 356.433 94.6536 355.963C94.758 355.467 94.9147 354.892 95.1236 354.239L99.5498 339.002H105.504L97.0821 366.421H92.7343L85.958 350.205L86.5847 350.283L80.2784 366.421H75.7739ZM109.504 366.421V337.436H114.988V349.931L113.891 350.401C114.179 349.461 114.688 348.612 115.419 347.855C116.176 347.071 117.077 346.445 118.122 345.974C119.166 345.504 120.263 345.269 121.412 345.269C122.979 345.269 124.284 345.583 125.329 346.209C126.399 346.836 127.196 347.789 127.718 349.069C128.266 350.322 128.541 351.876 128.541 353.73V366.421H122.979V354.161C122.979 353.221 122.848 352.437 122.587 351.811C122.326 351.184 121.921 350.727 121.373 350.44C120.85 350.126 120.198 349.996 119.414 350.048C118.787 350.048 118.2 350.153 117.652 350.361C117.129 350.544 116.672 350.818 116.281 351.184C115.915 351.55 115.615 351.967 115.38 352.437C115.171 352.907 115.066 353.417 115.066 353.965V366.421H112.325C111.724 366.421 111.189 366.421 110.719 366.421C110.249 366.421 109.844 366.421 109.504 366.421ZM144.485 366.813C142.24 366.813 140.281 366.356 138.61 365.442C136.939 364.528 135.633 363.274 134.693 361.681C133.753 360.089 133.283 358.261 133.283 356.198C133.283 354.605 133.544 353.142 134.066 351.811C134.589 350.479 135.32 349.33 136.26 348.364C137.2 347.372 138.31 346.614 139.589 346.092C140.895 345.544 142.305 345.269 143.819 345.269C145.23 345.269 146.535 345.531 147.736 346.053C148.938 346.549 149.969 347.267 150.831 348.207C151.719 349.121 152.398 350.205 152.868 351.458C153.338 352.712 153.547 354.083 153.494 355.571L153.455 357.294H136.808L135.907 353.887H148.872L148.246 354.592V353.73C148.193 353.025 147.958 352.385 147.541 351.811C147.149 351.236 146.64 350.792 146.013 350.479C145.386 350.166 144.681 350.009 143.898 350.009C142.749 350.009 141.77 350.231 140.96 350.675C140.177 351.119 139.576 351.772 139.158 352.633C138.74 353.495 138.532 354.54 138.532 355.767C138.532 357.02 138.793 358.104 139.315 359.018C139.863 359.932 140.621 360.65 141.587 361.172C142.579 361.668 143.741 361.916 145.073 361.916C145.987 361.916 146.822 361.773 147.58 361.486C148.337 361.198 149.146 360.702 150.008 359.997L152.672 363.718C151.914 364.397 151.079 364.972 150.165 365.442C149.251 365.886 148.311 366.225 147.345 366.46C146.379 366.695 145.425 366.813 144.485 366.813ZM158.388 366.421V345.7H163.754L163.95 352.359L163.01 350.988C163.323 349.918 163.833 348.951 164.538 348.09C165.243 347.202 166.065 346.51 167.005 346.014C167.971 345.517 168.977 345.269 170.021 345.269C170.465 345.269 170.896 345.309 171.314 345.387C171.732 345.465 172.084 345.557 172.371 345.661L170.883 351.772C170.57 351.615 170.191 351.484 169.747 351.38C169.303 351.249 168.846 351.184 168.376 351.184C167.75 351.184 167.162 351.302 166.614 351.537C166.091 351.745 165.634 352.059 165.243 352.477C164.851 352.868 164.538 353.338 164.303 353.887C164.094 354.435 163.989 355.036 163.989 355.688V366.421H158.388ZM185.298 366.813C183.052 366.813 181.094 366.356 179.423 365.442C177.751 364.528 176.446 363.274 175.506 361.681C174.566 360.089 174.096 358.261 174.096 356.198C174.096 354.605 174.357 353.142 174.879 351.811C175.401 350.479 176.132 349.33 177.072 348.364C178.013 347.372 179.122 346.614 180.402 346.092C181.707 345.544 183.118 345.269 184.632 345.269C186.042 345.269 187.348 345.531 188.549 346.053C189.75 346.549 190.782 347.267 191.643 348.207C192.531 349.121 193.21 350.205 193.68 351.458C194.15 352.712 194.359 354.083 194.307 355.571L194.268 357.294H177.621L176.72 353.887H189.685L189.058 354.592V353.73C189.006 353.025 188.771 352.385 188.353 351.811C187.962 351.236 187.452 350.792 186.826 350.479C186.199 350.166 185.494 350.009 184.71 350.009C183.561 350.009 182.582 350.231 181.773 350.675C180.989 351.119 180.389 351.772 179.971 352.633C179.553 353.495 179.344 354.54 179.344 355.767C179.344 357.02 179.605 358.104 180.128 359.018C180.676 359.932 181.433 360.65 182.399 361.172C183.392 361.668 184.554 361.916 185.886 361.916C186.8 361.916 187.635 361.773 188.392 361.486C189.15 361.198 189.959 360.702 190.821 359.997L193.484 363.718C192.727 364.397 191.892 364.972 190.978 365.442C190.064 365.886 189.124 366.225 188.157 366.46C187.191 366.695 186.238 366.813 185.298 366.813ZM220.103 366.813C218.301 366.813 216.682 366.356 215.246 365.442C213.81 364.502 212.674 363.235 211.838 361.642C211.029 360.023 210.624 358.156 210.624 356.041C210.624 353.978 211.029 352.137 211.838 350.518C212.674 348.899 213.797 347.62 215.207 346.68C216.643 345.739 218.275 345.269 220.103 345.269C221.069 345.269 221.996 345.426 222.884 345.739C223.798 346.027 224.608 346.431 225.313 346.954C226.044 347.476 226.631 348.064 227.075 348.716C227.519 349.343 227.767 350.009 227.819 350.714L226.409 350.949V337.436H231.971V366.421H226.723L226.488 361.642L227.584 361.76C227.532 362.413 227.297 363.039 226.879 363.64C226.462 364.24 225.9 364.789 225.195 365.285C224.516 365.755 223.733 366.134 222.845 366.421C221.983 366.682 221.069 366.813 220.103 366.813ZM221.357 362.191C222.401 362.191 223.315 361.929 224.098 361.407C224.882 360.885 225.495 360.167 225.939 359.253C226.383 358.339 226.605 357.268 226.605 356.041C226.605 354.84 226.383 353.782 225.939 352.868C225.495 351.928 224.882 351.21 224.098 350.714C223.315 350.192 222.401 349.931 221.357 349.931C220.312 349.931 219.398 350.192 218.615 350.714C217.857 351.21 217.257 351.928 216.813 352.868C216.395 353.782 216.186 354.84 216.186 356.041C216.186 357.268 216.395 358.339 216.813 359.253C217.257 360.167 217.857 360.885 218.615 361.407C219.398 361.929 220.312 362.191 221.357 362.191ZM248.009 366.813C245.763 366.813 243.805 366.356 242.133 365.442C240.462 364.528 239.157 363.274 238.216 361.681C237.276 360.089 236.806 358.261 236.806 356.198C236.806 354.605 237.068 353.142 237.59 351.811C238.112 350.479 238.843 349.33 239.783 348.364C240.723 347.372 241.833 346.614 243.113 346.092C244.418 345.544 245.828 345.269 247.343 345.269C248.753 345.269 250.059 345.531 251.26 346.053C252.461 346.549 253.493 347.267 254.354 348.207C255.242 349.121 255.921 350.205 256.391 351.458C256.861 352.712 257.07 354.083 257.018 355.571L256.979 357.294H240.332L239.431 353.887H252.396L251.769 354.592V353.73C251.717 353.025 251.482 352.385 251.064 351.811C250.672 351.236 250.163 350.792 249.536 350.479C248.91 350.166 248.205 350.009 247.421 350.009C246.272 350.009 245.293 350.231 244.484 350.675C243.7 351.119 243.1 351.772 242.682 352.633C242.264 353.495 242.055 354.54 242.055 355.767C242.055 357.02 242.316 358.104 242.838 359.018C243.387 359.932 244.144 360.65 245.11 361.172C246.103 361.668 247.265 361.916 248.596 361.916C249.51 361.916 250.346 361.773 251.103 361.486C251.86 361.198 252.67 360.702 253.532 359.997L256.195 363.718C255.438 364.397 254.602 364.972 253.688 365.442C252.774 365.886 251.834 366.225 250.868 366.46C249.902 366.695 248.949 366.813 248.009 366.813ZM270.92 366.813C268.936 366.813 267.16 366.343 265.593 365.402C264.027 364.462 262.786 363.183 261.872 361.564C260.985 359.945 260.541 358.104 260.541 356.041C260.541 354.004 260.985 352.176 261.872 350.557C262.786 348.912 264.027 347.62 265.593 346.68C267.16 345.739 268.936 345.269 270.92 345.269C272.775 345.269 274.472 345.609 276.013 346.288C277.553 346.967 278.754 347.907 279.616 349.108L276.561 352.79C276.195 352.294 275.738 351.85 275.19 351.458C274.642 351.04 274.041 350.714 273.388 350.479C272.761 350.244 272.109 350.126 271.43 350.126C270.359 350.126 269.406 350.388 268.57 350.91C267.761 351.406 267.121 352.098 266.651 352.986C266.181 353.874 265.946 354.892 265.946 356.041C265.946 357.164 266.181 358.169 266.651 359.057C267.147 359.919 267.813 360.624 268.649 361.172C269.484 361.694 270.424 361.956 271.469 361.956C272.148 361.956 272.788 361.864 273.388 361.681C273.989 361.472 274.55 361.172 275.072 360.781C275.621 360.389 276.117 359.919 276.561 359.37L279.577 363.052C278.689 364.175 277.462 365.089 275.895 365.794C274.328 366.473 272.67 366.813 270.92 366.813ZM283.964 366.421V337.436H289.526V366.421H283.964ZM303.327 366.813C301.603 366.813 300.05 366.343 298.666 365.402C297.282 364.462 296.185 363.183 295.375 361.564C294.566 359.945 294.161 358.091 294.161 356.002C294.161 353.913 294.566 352.072 295.375 350.479C296.211 348.86 297.334 347.593 298.744 346.68C300.154 345.739 301.76 345.269 303.562 345.269C304.58 345.269 305.507 345.426 306.343 345.739C307.205 346.027 307.949 346.431 308.575 346.954C309.228 347.476 309.777 348.077 310.221 348.755C310.664 349.434 310.978 350.166 311.161 350.949L309.986 350.753V345.7H315.508V366.421H309.907V361.446L311.161 361.329C310.952 362.06 310.612 362.752 310.142 363.405C309.672 364.058 309.085 364.645 308.38 365.167C307.701 365.664 306.93 366.068 306.069 366.382C305.207 366.669 304.293 366.813 303.327 366.813ZM304.854 361.995C305.899 361.995 306.813 361.747 307.596 361.251C308.38 360.754 308.98 360.062 309.398 359.175C309.842 358.261 310.064 357.203 310.064 356.002C310.064 354.827 309.842 353.795 309.398 352.907C308.98 352.02 308.38 351.328 307.596 350.831C306.813 350.309 305.899 350.048 304.854 350.048C303.836 350.048 302.935 350.309 302.152 350.831C301.394 351.328 300.794 352.02 300.35 352.907C299.906 353.795 299.684 354.827 299.684 356.002C299.684 357.203 299.906 358.261 300.35 359.175C300.794 360.062 301.394 360.754 302.152 361.251C302.935 361.747 303.836 361.995 304.854 361.995ZM321.868 366.421V345.7H327.234L327.43 352.359L326.49 350.988C326.804 349.918 327.313 348.951 328.018 348.09C328.723 347.202 329.545 346.51 330.486 346.014C331.452 345.517 332.457 345.269 333.502 345.269C333.945 345.269 334.376 345.309 334.794 345.387C335.212 345.465 335.564 345.557 335.852 345.661L334.363 351.772C334.05 351.615 333.671 351.484 333.227 351.38C332.783 351.249 332.326 351.184 331.856 351.184C331.23 351.184 330.642 351.302 330.094 351.537C329.572 351.745 329.115 352.059 328.723 352.477C328.331 352.868 328.018 353.338 327.783 353.887C327.574 354.435 327.469 355.036 327.469 355.688V366.421H321.868ZM346.702 366.813C344.979 366.813 343.425 366.343 342.041 365.402C340.657 364.462 339.56 363.183 338.751 361.564C337.941 359.945 337.537 358.091 337.537 356.002C337.537 353.913 337.941 352.072 338.751 350.479C339.586 348.86 340.709 347.593 342.119 346.68C343.53 345.739 345.135 345.269 346.937 345.269C347.956 345.269 348.883 345.426 349.718 345.739C350.58 346.027 351.324 346.431 351.951 346.954C352.604 347.476 353.152 348.077 353.596 348.755C354.04 349.434 354.353 350.166 354.536 350.949L353.361 350.753V345.7H358.884V366.421H353.283V361.446L354.536 361.329C354.327 362.06 353.988 362.752 353.518 363.405C353.048 364.058 352.46 364.645 351.755 365.167C351.076 365.664 350.306 366.068 349.444 366.382C348.582 366.669 347.668 366.813 346.702 366.813ZM348.23 361.995C349.274 361.995 350.188 361.747 350.972 361.251C351.755 360.754 352.356 360.062 352.774 359.175C353.217 358.261 353.439 357.203 353.439 356.002C353.439 354.827 353.217 353.795 352.774 352.907C352.356 352.02 351.755 351.328 350.972 350.831C350.188 350.309 349.274 350.048 348.23 350.048C347.211 350.048 346.311 350.309 345.527 350.831C344.77 351.328 344.169 352.02 343.725 352.907C343.281 353.795 343.059 354.827 343.059 356.002C343.059 357.203 343.281 358.261 343.725 359.175C344.169 360.062 344.77 360.754 345.527 361.251C346.311 361.747 347.211 361.995 348.23 361.995ZM367.241 366.421V340.452H372.803V366.421H367.241ZM363.364 350.675V345.7H377.034V350.675H363.364ZM381.912 366.421V345.7H387.475V366.421H381.912ZM384.654 341.431C383.584 341.431 382.748 341.17 382.147 340.647C381.547 340.125 381.247 339.381 381.247 338.415C381.247 337.527 381.547 336.809 382.147 336.26C382.774 335.686 383.61 335.399 384.654 335.399C385.725 335.399 386.561 335.673 387.161 336.221C387.762 336.744 388.062 337.475 388.062 338.415C388.062 339.329 387.749 340.06 387.122 340.608C386.521 341.157 385.699 341.431 384.654 341.431ZM400.701 366.421L392.005 345.7H398.115L403.638 361.172L402.346 361.407L408.143 345.7H414.097L404.97 366.421H400.701ZM427.535 366.813C425.289 366.813 423.331 366.356 421.659 365.442C419.988 364.528 418.682 363.274 417.742 361.681C416.802 360.089 416.332 358.261 416.332 356.198C416.332 354.605 416.593 353.142 417.116 351.811C417.638 350.479 418.369 349.33 419.309 348.364C420.249 347.372 421.359 346.614 422.639 346.092C423.944 345.544 425.354 345.269 426.869 345.269C428.279 345.269 429.585 345.531 430.786 346.053C431.987 346.549 433.018 347.267 433.88 348.207C434.768 349.121 435.447 350.205 435.917 351.458C436.387 352.712 436.596 354.083 436.544 355.571L436.505 357.294H419.858L418.957 353.887H431.922L431.295 354.592V353.73C431.243 353.025 431.008 352.385 430.59 351.811C430.198 351.236 429.689 350.792 429.062 350.479C428.436 350.166 427.731 350.009 426.947 350.009C425.798 350.009 424.819 350.231 424.009 350.675C423.226 351.119 422.625 351.772 422.208 352.633C421.79 353.495 421.581 354.54 421.581 355.767C421.581 357.02 421.842 358.104 422.364 359.018C422.913 359.932 423.67 360.65 424.636 361.172C425.628 361.668 426.791 361.916 428.122 361.916C429.036 361.916 429.872 361.773 430.629 361.486C431.386 361.198 432.196 360.702 433.058 359.997L435.721 363.718C434.964 364.397 434.128 364.972 433.214 365.442C432.3 365.886 431.36 366.225 430.394 366.46C429.428 366.695 428.475 366.813 427.535 366.813ZM461.987 366.813C460.264 366.813 458.71 366.343 457.326 365.402C455.942 364.462 454.845 363.183 454.036 361.564C453.226 359.945 452.822 358.091 452.822 356.002C452.822 353.913 453.226 352.072 454.036 350.479C454.872 348.86 455.994 347.593 457.404 346.68C458.815 345.739 460.421 345.269 462.222 345.269C463.241 345.269 464.168 345.426 465.003 345.739C465.865 346.027 466.609 346.431 467.236 346.954C467.889 347.476 468.437 348.077 468.881 348.755C469.325 349.434 469.638 350.166 469.821 350.949L468.646 350.753V345.7H474.169V366.421H468.568V361.446L469.821 361.329C469.612 362.06 469.273 362.752 468.803 363.405C468.333 364.058 467.745 364.645 467.04 365.167C466.361 365.664 465.591 366.068 464.729 366.382C463.867 366.669 462.953 366.813 461.987 366.813ZM463.515 361.995C464.559 361.995 465.473 361.747 466.257 361.251C467.04 360.754 467.641 360.062 468.059 359.175C468.502 358.261 468.724 357.203 468.724 356.002C468.724 354.827 468.502 353.795 468.059 352.907C467.641 352.02 467.04 351.328 466.257 350.831C465.473 350.309 464.559 350.048 463.515 350.048C462.496 350.048 461.596 350.309 460.812 350.831C460.055 351.328 459.454 352.02 459.01 352.907C458.566 353.795 458.345 354.827 458.345 356.002C458.345 357.203 458.566 358.261 459.01 359.175C459.454 360.062 460.055 360.754 460.812 361.251C461.596 361.747 462.496 361.995 463.515 361.995ZM480.529 366.421V345.7H485.856L486.013 349.931L484.916 350.401C485.203 349.461 485.712 348.612 486.443 347.855C487.201 347.071 488.102 346.445 489.146 345.974C490.191 345.504 491.287 345.269 492.436 345.269C494.003 345.269 495.309 345.583 496.353 346.209C497.424 346.836 498.22 347.789 498.743 349.069C499.291 350.322 499.565 351.876 499.565 353.73V366.421H494.003V354.161C494.003 353.221 493.873 352.437 493.611 351.811C493.35 351.184 492.945 350.727 492.397 350.44C491.875 350.126 491.222 349.996 490.439 350.048C489.812 350.048 489.224 350.153 488.676 350.361C488.154 350.544 487.697 350.818 487.305 351.184C486.94 351.55 486.639 351.967 486.404 352.437C486.195 352.907 486.091 353.417 486.091 353.965V366.421H483.349C482.748 366.421 482.213 366.421 481.743 366.421C481.273 366.421 480.868 366.421 480.529 366.421ZM506.148 366.421V345.7H511.71V366.421H506.148ZM508.89 341.431C507.82 341.431 506.984 341.17 506.383 340.647C505.783 340.125 505.482 339.381 505.482 338.415C505.482 337.527 505.783 336.809 506.383 336.26C507.01 335.686 507.846 335.399 508.89 335.399C509.961 335.399 510.796 335.673 511.397 336.221C511.998 336.744 512.298 337.475 512.298 338.415C512.298 339.329 511.985 340.06 511.358 340.608C510.757 341.157 509.935 341.431 508.89 341.431ZM518.395 366.421V345.7H523.761L523.879 349.656L523.056 349.813C523.344 349.134 523.722 348.52 524.192 347.972C524.662 347.424 525.211 346.954 525.837 346.562C526.49 346.17 527.169 345.87 527.874 345.661C528.579 345.426 529.284 345.309 529.989 345.309C531.06 345.309 532.026 345.478 532.888 345.818C533.75 346.157 534.481 346.693 535.081 347.424C535.682 348.129 536.152 349.069 536.491 350.244L535.63 350.166L535.904 349.539C536.243 348.912 536.674 348.351 537.197 347.855C537.719 347.332 538.306 346.888 538.959 346.523C539.612 346.131 540.291 345.831 540.996 345.622C541.701 345.413 542.393 345.309 543.072 345.309C544.691 345.309 546.036 345.635 547.106 346.288C548.177 346.915 548.973 347.868 549.496 349.147C550.044 350.427 550.318 351.994 550.318 353.848V366.421H544.756V354.239C544.756 353.299 544.626 352.529 544.365 351.928C544.103 351.328 543.725 350.884 543.229 350.596C542.732 350.283 542.093 350.126 541.309 350.126C540.709 350.126 540.147 350.231 539.625 350.44C539.129 350.623 538.685 350.897 538.293 351.262C537.928 351.602 537.64 352.007 537.432 352.477C537.223 352.947 537.118 353.469 537.118 354.043V366.421H531.556V354.2C531.556 353.338 531.413 352.607 531.125 352.007C530.864 351.38 530.485 350.91 529.989 350.596C529.493 350.283 528.88 350.126 528.148 350.126C527.548 350.126 526.986 350.231 526.464 350.44C525.968 350.623 525.537 350.897 525.172 351.262C524.806 351.602 524.506 352.007 524.271 352.477C524.062 352.947 523.957 353.456 523.957 354.004V366.421H518.395ZM564.154 366.813C562.43 366.813 560.876 366.343 559.492 365.402C558.108 364.462 557.012 363.183 556.202 361.564C555.393 359.945 554.988 358.091 554.988 356.002C554.988 353.913 555.393 352.072 556.202 350.479C557.038 348.86 558.161 347.593 559.571 346.68C560.981 345.739 562.587 345.269 564.389 345.269C565.407 345.269 566.334 345.426 567.17 345.739C568.031 346.027 568.776 346.431 569.402 346.954C570.055 347.476 570.604 348.077 571.047 348.755C571.491 349.434 571.805 350.166 571.988 350.949L570.812 350.753V345.7H576.335V366.421H570.734V361.446L571.988 361.329C571.779 362.06 571.439 362.752 570.969 363.405C570.499 364.058 569.912 364.645 569.206 365.167C568.528 365.664 567.757 366.068 566.895 366.382C566.034 366.669 565.12 366.813 564.154 366.813ZM565.681 361.995C566.726 361.995 567.64 361.747 568.423 361.251C569.206 360.754 569.807 360.062 570.225 359.175C570.669 358.261 570.891 357.203 570.891 356.002C570.891 354.827 570.669 353.795 570.225 352.907C569.807 352.02 569.206 351.328 568.423 350.831C567.64 350.309 566.726 350.048 565.681 350.048C564.663 350.048 563.762 350.309 562.979 350.831C562.221 351.328 561.621 352.02 561.177 352.907C560.733 353.795 560.511 354.827 560.511 356.002C560.511 357.203 560.733 358.261 561.177 359.175C561.621 360.062 562.221 360.754 562.979 361.251C563.762 361.747 564.663 361.995 565.681 361.995ZM584.693 366.421V340.452H590.255V366.421H584.693ZM580.815 350.675V345.7H594.485V350.675H580.815ZM599.364 366.421V345.7H604.926V366.421H599.364ZM602.106 341.431C601.035 341.431 600.199 341.17 599.599 340.647C598.998 340.125 598.698 339.381 598.698 338.415C598.698 337.527 598.998 336.809 599.599 336.26C600.226 335.686 601.061 335.399 602.106 335.399C603.176 335.399 604.012 335.673 604.613 336.221C605.213 336.744 605.513 337.475 605.513 338.415C605.513 339.329 605.2 340.06 604.573 340.608C603.973 341.157 603.15 341.431 602.106 341.431ZM621.286 366.813C619.17 366.813 617.277 366.356 615.606 365.442C613.961 364.502 612.655 363.222 611.689 361.603C610.749 359.984 610.279 358.13 610.279 356.041C610.279 353.952 610.749 352.111 611.689 350.518C612.655 348.899 613.961 347.62 615.606 346.68C617.277 345.739 619.17 345.269 621.286 345.269C623.375 345.269 625.242 345.739 626.887 346.68C628.558 347.62 629.864 348.899 630.804 350.518C631.744 352.111 632.214 353.952 632.214 356.041C632.214 358.13 631.744 359.984 630.804 361.603C629.864 363.222 628.558 364.502 626.887 365.442C625.242 366.356 623.375 366.813 621.286 366.813ZM621.286 361.956C622.304 361.956 623.218 361.708 624.027 361.211C624.837 360.689 625.464 359.984 625.908 359.096C626.378 358.182 626.613 357.164 626.613 356.041C626.613 354.892 626.378 353.874 625.908 352.986C625.464 352.072 624.837 351.367 624.027 350.871C623.218 350.348 622.304 350.087 621.286 350.087C620.241 350.087 619.314 350.348 618.505 350.871C617.695 351.393 617.055 352.098 616.585 352.986C616.115 353.874 615.893 354.892 615.919 356.041C615.893 357.164 616.115 358.182 616.585 359.096C617.055 359.984 617.695 360.689 618.505 361.211C619.314 361.708 620.241 361.956 621.286 361.956ZM637.182 366.421V345.7H642.509L642.666 349.931L641.569 350.401C641.856 349.461 642.365 348.612 643.096 347.855C643.854 347.071 644.755 346.445 645.799 345.974C646.844 345.504 647.94 345.269 649.089 345.269C650.656 345.269 651.962 345.583 653.006 346.209C654.077 346.836 654.873 347.789 655.396 349.069C655.944 350.322 656.218 351.876 656.218 353.73V366.421H650.656V354.161C650.656 353.221 650.526 352.437 650.264 351.811C650.003 351.184 649.599 350.727 649.05 350.44C648.528 350.126 647.875 349.996 647.092 350.048C646.465 350.048 645.878 350.153 645.329 350.361C644.807 350.544 644.35 350.818 643.958 351.184C643.593 351.55 643.292 351.967 643.057 352.437C642.848 352.907 642.744 353.417 642.744 353.965V366.421H640.002C639.402 366.421 638.866 366.421 638.396 366.421C637.926 366.421 637.521 366.421 637.182 366.421ZM669.304 366.813C667.371 366.813 665.648 366.499 664.133 365.873C662.645 365.22 661.444 364.332 660.53 363.209L663.977 360.232C664.786 361.094 665.687 361.721 666.679 362.112C667.672 362.478 668.664 362.661 669.656 362.661C670.048 362.661 670.4 362.621 670.714 362.543C671.053 362.439 671.34 362.308 671.575 362.151C671.81 361.969 671.98 361.76 672.085 361.525C672.215 361.264 672.28 360.989 672.28 360.702C672.28 360.128 672.045 359.671 671.575 359.331C671.314 359.201 670.91 359.044 670.361 358.861C669.813 358.652 669.108 358.43 668.246 358.195C666.914 357.856 665.778 357.464 664.838 357.02C663.924 356.55 663.193 356.028 662.645 355.453C662.175 354.905 661.809 354.318 661.548 353.691C661.313 353.038 661.196 352.32 661.196 351.537C661.196 350.596 661.404 349.748 661.822 348.991C662.24 348.207 662.815 347.541 663.546 346.993C664.303 346.445 665.165 346.027 666.131 345.739C667.097 345.426 668.115 345.269 669.186 345.269C670.257 345.269 671.301 345.4 672.32 345.661C673.338 345.922 674.278 346.301 675.14 346.797C676.028 347.267 676.798 347.828 677.451 348.481L674.474 351.772C674.004 351.328 673.469 350.923 672.868 350.557C672.294 350.192 671.693 349.904 671.066 349.696C670.44 349.487 669.878 349.382 669.382 349.382C668.938 349.382 668.533 349.421 668.168 349.5C667.828 349.578 667.541 349.696 667.306 349.852C667.071 350.009 666.888 350.218 666.758 350.479C666.653 350.714 666.601 350.975 666.601 351.262C666.601 351.55 666.666 351.824 666.797 352.085C666.953 352.346 667.162 352.568 667.423 352.751C667.711 352.907 668.129 353.09 668.677 353.299C669.251 353.508 670.022 353.743 670.988 354.004C672.241 354.344 673.299 354.722 674.161 355.14C675.048 355.558 675.753 356.041 676.276 356.589C676.72 357.059 677.046 357.595 677.255 358.195C677.464 358.796 677.568 359.462 677.568 360.193C677.568 361.472 677.203 362.621 676.472 363.64C675.767 364.632 674.787 365.416 673.534 365.99C672.28 366.538 670.87 366.813 669.304 366.813ZM695.072 366.421V345.7H700.438L700.556 349.656L699.733 349.813C700.021 349.134 700.399 348.52 700.869 347.972C701.339 347.424 701.888 346.954 702.514 346.562C703.167 346.17 703.846 345.87 704.551 345.661C705.256 345.426 705.961 345.309 706.666 345.309C707.737 345.309 708.703 345.478 709.565 345.818C710.427 346.157 711.158 346.693 711.758 347.424C712.359 348.129 712.829 349.069 713.168 350.244L712.307 350.166L712.581 349.539C712.92 348.912 713.351 348.351 713.873 347.855C714.396 347.332 714.983 346.888 715.636 346.523C716.289 346.131 716.968 345.831 717.673 345.622C718.378 345.413 719.07 345.309 719.749 345.309C721.368 345.309 722.713 345.635 723.783 346.288C724.854 346.915 725.65 347.868 726.173 349.147C726.721 350.427 726.995 351.994 726.995 353.848V366.421H721.433V354.239C721.433 353.299 721.303 352.529 721.041 351.928C720.78 351.328 720.402 350.884 719.906 350.596C719.409 350.283 718.77 350.126 717.986 350.126C717.386 350.126 716.824 350.231 716.302 350.44C715.806 350.623 715.362 350.897 714.97 351.262C714.605 351.602 714.317 352.007 714.108 352.477C713.9 352.947 713.795 353.469 713.795 354.043V366.421H708.233V354.2C708.233 353.338 708.089 352.607 707.802 352.007C707.541 351.38 707.162 350.91 706.666 350.596C706.17 350.283 705.556 350.126 704.825 350.126C704.225 350.126 703.663 350.231 703.141 350.44C702.645 350.623 702.214 350.897 701.848 351.262C701.483 351.602 701.183 352.007 700.948 352.477C700.739 352.947 700.634 353.456 700.634 354.004V366.421H695.072ZM742.907 366.813C740.661 366.813 738.702 366.356 737.031 365.442C735.36 364.528 734.054 363.274 733.114 361.681C732.174 360.089 731.704 358.261 731.704 356.198C731.704 354.605 731.965 353.142 732.487 351.811C733.01 350.479 733.741 349.33 734.681 348.364C735.621 347.372 736.731 346.614 738.01 346.092C739.316 345.544 740.726 345.269 742.241 345.269C743.651 345.269 744.956 345.531 746.158 346.053C747.359 346.549 748.39 347.267 749.252 348.207C750.14 349.121 750.819 350.205 751.289 351.458C751.759 352.712 751.968 354.083 751.916 355.571L751.876 357.294H735.229L734.328 353.887H747.294L746.667 354.592V353.73C746.615 353.025 746.38 352.385 745.962 351.811C745.57 351.236 745.061 350.792 744.434 350.479C743.807 350.166 743.102 350.009 742.319 350.009C741.17 350.009 740.191 350.231 739.381 350.675C738.598 351.119 737.997 351.772 737.58 352.633C737.162 353.495 736.953 354.54 736.953 355.767C736.953 357.02 737.214 358.104 737.736 359.018C738.285 359.932 739.042 360.65 740.008 361.172C741 361.668 742.162 361.916 743.494 361.916C744.408 361.916 745.244 361.773 746.001 361.486C746.758 361.198 747.568 360.702 748.429 359.997L751.093 363.718C750.336 364.397 749.5 364.972 748.586 365.442C747.672 365.886 746.732 366.225 745.766 366.46C744.8 366.695 743.847 366.813 742.907 366.813ZM766.641 366.813C764.395 366.813 762.437 366.356 760.765 365.442C759.094 364.528 757.788 363.274 756.848 361.681C755.908 360.089 755.438 358.261 755.438 356.198C755.438 354.605 755.699 353.142 756.222 351.811C756.744 350.479 757.475 349.33 758.415 348.364C759.355 347.372 760.465 346.614 761.745 346.092C763.05 345.544 764.46 345.269 765.975 345.269C767.385 345.269 768.691 345.531 769.892 346.053C771.093 346.549 772.124 347.267 772.986 348.207C773.874 349.121 774.553 350.205 775.023 351.458C775.493 352.712 775.702 354.083 775.65 355.571L775.611 357.294H758.964L758.063 353.887H771.028L770.401 354.592V353.73C770.349 353.025 770.114 352.385 769.696 351.811C769.304 351.236 768.795 350.792 768.168 350.479C767.542 350.166 766.837 350.009 766.053 350.009C764.904 350.009 763.925 350.231 763.115 350.675C762.332 351.119 761.732 351.772 761.314 352.633C760.896 353.495 760.687 354.54 760.687 355.767C760.687 357.02 760.948 358.104 761.47 359.018C762.019 359.932 762.776 360.65 763.742 361.172C764.735 361.668 765.897 361.916 767.228 361.916C768.142 361.916 768.978 361.773 769.735 361.486C770.492 361.198 771.302 360.702 772.164 359.997L774.827 363.718C774.07 364.397 773.234 364.972 772.32 365.442C771.406 365.886 770.466 366.225 769.5 366.46C768.534 366.695 767.581 366.813 766.641 366.813ZM782.541 366.421V340.452H788.103V366.421H782.541ZM778.663 350.675V345.7H792.333V350.675H778.663ZM69.781 411.421V390.7H75.1081L75.2647 394.931L74.168 395.401C74.4552 394.461 74.9644 393.612 75.6956 392.855C76.4529 392.071 77.3538 391.445 78.3983 390.974C79.4428 390.504 80.5396 390.269 81.6885 390.269C83.2553 390.269 84.5609 390.583 85.6055 391.209C86.6761 391.836 87.4725 392.789 87.9948 394.069C88.5432 395.322 88.8174 396.876 88.8174 398.73V411.421H83.2553V399.161C83.2553 398.221 83.1247 397.437 82.8636 396.811C82.6025 396.184 82.1977 395.727 81.6494 395.44C81.1271 395.126 80.4743 394.996 79.6909 395.048C79.0642 395.048 78.4766 395.153 77.9283 395.361C77.406 395.544 76.949 395.818 76.5573 396.184C76.1918 396.55 75.8915 396.967 75.6564 397.437C75.4475 397.907 75.3431 398.417 75.3431 398.965V411.421H72.6012C72.0006 411.421 71.4653 411.421 70.9953 411.421C70.5252 411.421 70.1205 411.421 69.781 411.421ZM102.686 411.813C100.963 411.813 99.4089 411.343 98.0249 410.402C96.6409 409.462 95.5442 408.183 94.7347 406.564C93.9252 404.945 93.5204 403.091 93.5204 401.002C93.5204 398.913 93.9252 397.072 94.7347 395.479C95.5703 393.86 96.6932 392.593 98.1033 391.68C99.5134 390.739 101.119 390.269 102.921 390.269C103.939 390.269 104.867 390.426 105.702 390.739C106.564 391.027 107.308 391.431 107.935 391.954C108.588 392.476 109.136 393.077 109.58 393.755C110.024 394.434 110.337 395.166 110.52 395.949L109.345 395.753V390.7H114.868V411.421H109.267V406.446L110.52 406.329C110.311 407.06 109.972 407.752 109.502 408.405C109.032 409.058 108.444 409.645 107.739 410.167C107.06 410.664 106.29 411.068 105.428 411.382C104.566 411.669 103.652 411.813 102.686 411.813ZM104.214 406.995C105.258 406.995 106.172 406.747 106.956 406.251C107.739 405.754 108.34 405.062 108.757 404.175C109.201 403.261 109.423 402.203 109.423 401.002C109.423 399.827 109.201 398.795 108.757 397.907C108.34 397.02 107.739 396.328 106.956 395.831C106.172 395.309 105.258 395.048 104.214 395.048C103.195 395.048 102.294 395.309 101.511 395.831C100.754 396.328 100.153 397.02 99.7092 397.907C99.2653 398.795 99.0433 399.827 99.0433 401.002C99.0433 402.203 99.2653 403.261 99.7092 404.175C100.153 405.062 100.754 405.754 101.511 406.251C102.294 406.747 103.195 406.995 104.214 406.995ZM123.225 411.421V385.452H128.787V411.421H123.225ZM119.347 395.675V390.7H133.018V395.675H119.347ZM137.896 411.421V390.7H143.458V411.421H137.896ZM140.638 386.431C139.568 386.431 138.732 386.17 138.131 385.647C137.531 385.125 137.23 384.381 137.23 383.415C137.23 382.527 137.531 381.809 138.131 381.26C138.758 380.686 139.594 380.399 140.638 380.399C141.709 380.399 142.544 380.673 143.145 381.221C143.746 381.744 144.046 382.475 144.046 383.415C144.046 384.329 143.733 385.06 143.106 385.608C142.505 386.157 141.683 386.431 140.638 386.431ZM156.684 411.421L147.989 390.7H154.099L159.622 406.172L158.33 406.407L164.127 390.7H170.08L160.954 411.421H156.684ZM183.519 411.813C181.273 411.813 179.314 411.356 177.643 410.442C175.972 409.528 174.666 408.274 173.726 406.681C172.786 405.089 172.316 403.261 172.316 401.198C172.316 399.605 172.577 398.142 173.099 396.811C173.622 395.479 174.353 394.33 175.293 393.364C176.233 392.372 177.343 391.614 178.622 391.092C179.928 390.544 181.338 390.269 182.853 390.269C184.263 390.269 185.568 390.531 186.77 391.053C187.971 391.549 189.002 392.267 189.864 393.207C190.752 394.121 191.431 395.205 191.901 396.458C192.371 397.712 192.58 399.083 192.528 400.571L192.488 402.294H175.841L174.94 398.887H187.906L187.279 399.592V398.73C187.227 398.025 186.992 397.385 186.574 396.811C186.182 396.236 185.673 395.792 185.046 395.479C184.419 395.166 183.714 395.009 182.931 395.009C181.782 395.009 180.803 395.231 179.993 395.675C179.21 396.119 178.609 396.772 178.192 397.633C177.774 398.495 177.565 399.54 177.565 400.767C177.565 402.02 177.826 403.104 178.348 404.018C178.897 404.932 179.654 405.65 180.62 406.172C181.612 406.668 182.774 406.916 184.106 406.916C185.02 406.916 185.856 406.773 186.613 406.486C187.37 406.198 188.18 405.702 189.041 404.997L191.705 408.718C190.948 409.397 190.112 409.972 189.198 410.442C188.284 410.886 187.344 411.225 186.378 411.46C185.412 411.695 184.459 411.813 183.519 411.813ZM210.216 420.038V390.7H215.582L215.738 395.361L214.72 395.009C214.903 394.173 215.347 393.403 216.052 392.698C216.783 391.993 217.684 391.418 218.754 390.974C219.825 390.531 220.948 390.309 222.123 390.309C223.925 390.309 225.518 390.779 226.902 391.719C228.312 392.633 229.422 393.899 230.231 395.518C231.067 397.111 231.485 398.952 231.485 401.041C231.485 403.104 231.08 404.945 230.27 406.564C229.461 408.183 228.351 409.462 226.941 410.402C225.531 411.316 223.925 411.773 222.123 411.773C220.922 411.773 219.773 411.551 218.676 411.108C217.606 410.638 216.692 410.024 215.934 409.267C215.177 408.509 214.707 407.7 214.524 406.838L215.817 406.29V420.038H210.216ZM220.87 406.995C221.888 406.995 222.789 406.747 223.572 406.251C224.356 405.754 224.969 405.062 225.413 404.175C225.857 403.261 226.079 402.216 226.079 401.041C226.079 399.866 225.857 398.834 225.413 397.947C224.969 397.059 224.356 396.367 223.572 395.871C222.815 395.375 221.914 395.126 220.87 395.126C219.825 395.126 218.911 395.375 218.128 395.871C217.344 396.341 216.731 397.033 216.287 397.947C215.843 398.834 215.621 399.866 215.621 401.041C215.621 402.216 215.843 403.261 216.287 404.175C216.731 405.062 217.344 405.754 218.128 406.251C218.911 406.747 219.825 406.995 220.87 406.995ZM246.306 411.813C244.06 411.813 242.102 411.356 240.43 410.442C238.759 409.528 237.454 408.274 236.514 406.681C235.573 405.089 235.103 403.261 235.103 401.198C235.103 399.605 235.365 398.142 235.887 396.811C236.409 395.479 237.14 394.33 238.08 393.364C239.02 392.372 240.13 391.614 241.41 391.092C242.715 390.544 244.125 390.269 245.64 390.269C247.05 390.269 248.356 390.531 249.557 391.053C250.758 391.549 251.79 392.267 252.651 393.207C253.539 394.121 254.218 395.205 254.688 396.458C255.158 397.712 255.367 399.083 255.315 400.571L255.276 402.294H238.629L237.728 398.887H250.693L250.066 399.592V398.73C250.014 398.025 249.779 397.385 249.361 396.811C248.969 396.236 248.46 395.792 247.833 395.479C247.207 395.166 246.502 395.009 245.718 395.009C244.569 395.009 243.59 395.231 242.781 395.675C241.997 396.119 241.397 396.772 240.979 397.633C240.561 398.495 240.352 399.54 240.352 400.767C240.352 402.02 240.613 403.104 241.136 404.018C241.684 404.932 242.441 405.65 243.407 406.172C244.4 406.668 245.562 406.916 246.893 406.916C247.807 406.916 248.643 406.773 249.4 406.486C250.158 406.198 250.967 405.702 251.829 404.997L254.492 408.718C253.735 409.397 252.899 409.972 251.985 410.442C251.071 410.886 250.131 411.225 249.165 411.46C248.199 411.695 247.246 411.813 246.306 411.813ZM260.209 411.421V390.7H265.575L265.771 397.359L264.831 395.988C265.144 394.918 265.653 393.951 266.358 393.09C267.063 392.202 267.886 391.51 268.826 391.014C269.792 390.517 270.797 390.269 271.842 390.269C272.286 390.269 272.717 390.309 273.134 390.387C273.552 390.465 273.905 390.557 274.192 390.661L272.704 396.772C272.39 396.615 272.012 396.484 271.568 396.38C271.124 396.249 270.667 396.184 270.197 396.184C269.57 396.184 268.983 396.302 268.434 396.537C267.912 396.745 267.455 397.059 267.063 397.477C266.672 397.868 266.358 398.338 266.123 398.887C265.914 399.435 265.81 400.036 265.81 400.688V411.421H260.209ZM279.773 411.421V389.251C279.773 387.971 280.06 386.809 280.634 385.765C281.209 384.72 281.992 383.898 282.985 383.297C284.003 382.697 285.191 382.396 286.549 382.396C287.463 382.396 288.325 382.553 289.134 382.866C289.944 383.154 290.636 383.558 291.21 384.081L289.565 388.154C289.226 387.945 288.873 387.776 288.508 387.645C288.168 387.488 287.855 387.41 287.567 387.41C287.071 387.41 286.654 387.501 286.314 387.684C286.001 387.841 285.766 388.089 285.609 388.428C285.452 388.742 285.374 389.147 285.374 389.643V411.421H282.593C281.992 411.421 281.457 411.421 280.987 411.421C280.517 411.421 280.112 411.421 279.773 411.421ZM276.678 395.91V391.209H289.839V395.91H276.678ZM303.198 411.813C301.083 411.813 299.19 411.356 297.518 410.442C295.873 409.502 294.568 408.222 293.601 406.603C292.661 404.984 292.191 403.13 292.191 401.041C292.191 398.952 292.661 397.111 293.601 395.518C294.568 393.899 295.873 392.62 297.518 391.68C299.19 390.739 301.083 390.269 303.198 390.269C305.287 390.269 307.154 390.739 308.799 391.68C310.47 392.62 311.776 393.899 312.716 395.518C313.656 397.111 314.126 398.952 314.126 401.041C314.126 403.13 313.656 404.984 312.716 406.603C311.776 408.222 310.47 409.502 308.799 410.442C307.154 411.356 305.287 411.813 303.198 411.813ZM303.198 406.956C304.216 406.956 305.13 406.708 305.94 406.211C306.749 405.689 307.376 404.984 307.82 404.096C308.29 403.182 308.525 402.164 308.525 401.041C308.525 399.892 308.29 398.874 307.82 397.986C307.376 397.072 306.749 396.367 305.94 395.871C305.13 395.348 304.216 395.087 303.198 395.087C302.153 395.087 301.226 395.348 300.417 395.871C299.607 396.393 298.968 397.098 298.498 397.986C298.028 398.874 297.806 399.892 297.832 401.041C297.806 402.164 298.028 403.182 298.498 404.096C298.968 404.984 299.607 405.689 300.417 406.211C301.226 406.708 302.153 406.956 303.198 406.956ZM319.094 411.421V390.7H324.46L324.656 397.359L323.716 395.988C324.03 394.918 324.539 393.951 325.244 393.09C325.949 392.202 326.771 391.51 327.712 391.014C328.678 390.517 329.683 390.269 330.728 390.269C331.171 390.269 331.602 390.309 332.02 390.387C332.438 390.465 332.79 390.557 333.078 390.661L331.589 396.772C331.276 396.615 330.897 396.484 330.453 396.38C330.009 396.249 329.552 396.184 329.082 396.184C328.456 396.184 327.868 396.302 327.32 396.537C326.798 396.745 326.341 397.059 325.949 397.477C325.557 397.868 325.244 398.338 325.009 398.887C324.8 399.435 324.695 400.036 324.695 400.688V411.421H319.094ZM337.013 411.421V390.7H342.38L342.497 394.656L341.675 394.813C341.962 394.134 342.34 393.52 342.81 392.972C343.28 392.424 343.829 391.954 344.456 391.562C345.108 391.17 345.787 390.87 346.492 390.661C347.197 390.426 347.902 390.309 348.607 390.309C349.678 390.309 350.644 390.478 351.506 390.818C352.368 391.157 353.099 391.693 353.7 392.424C354.3 393.129 354.77 394.069 355.11 395.244L354.248 395.166L354.522 394.539C354.862 393.912 355.292 393.351 355.815 392.855C356.337 392.332 356.924 391.888 357.577 391.523C358.23 391.131 358.909 390.831 359.614 390.622C360.319 390.413 361.011 390.309 361.69 390.309C363.309 390.309 364.654 390.635 365.725 391.288C366.795 391.915 367.592 392.868 368.114 394.147C368.662 395.427 368.936 396.994 368.936 398.848V411.421H363.374V399.239C363.374 398.299 363.244 397.529 362.983 396.928C362.722 396.328 362.343 395.884 361.847 395.596C361.351 395.283 360.711 395.126 359.927 395.126C359.327 395.126 358.765 395.231 358.243 395.44C357.747 395.623 357.303 395.897 356.911 396.262C356.546 396.602 356.259 397.007 356.05 397.477C355.841 397.947 355.736 398.469 355.736 399.043V411.421H350.174V399.2C350.174 398.338 350.031 397.607 349.743 397.007C349.482 396.38 349.104 395.91 348.607 395.596C348.111 395.283 347.498 395.126 346.767 395.126C346.166 395.126 345.604 395.231 345.082 395.44C344.586 395.623 344.155 395.897 343.79 396.262C343.424 396.602 343.124 397.007 342.889 397.477C342.68 397.947 342.575 398.456 342.575 399.004V411.421H337.013ZM382.772 411.813C381.048 411.813 379.495 411.343 378.111 410.402C376.727 409.462 375.63 408.183 374.82 406.564C374.011 404.945 373.606 403.091 373.606 401.002C373.606 398.913 374.011 397.072 374.82 395.479C375.656 393.86 376.779 392.593 378.189 391.68C379.599 390.739 381.205 390.269 383.007 390.269C384.025 390.269 384.952 390.426 385.788 390.739C386.65 391.027 387.394 391.431 388.02 391.954C388.673 392.476 389.222 393.077 389.666 393.755C390.11 394.434 390.423 395.166 390.606 395.949L389.431 395.753V390.7H394.953V411.421H389.352V406.446L390.606 406.329C390.397 407.06 390.057 407.752 389.587 408.405C389.117 409.058 388.53 409.645 387.825 410.167C387.146 410.664 386.375 411.068 385.514 411.382C384.652 411.669 383.738 411.813 382.772 411.813ZM384.299 406.995C385.344 406.995 386.258 406.747 387.041 406.251C387.825 405.754 388.425 405.062 388.843 404.175C389.287 403.261 389.509 402.203 389.509 401.002C389.509 399.827 389.287 398.795 388.843 397.907C388.425 397.02 387.825 396.328 387.041 395.831C386.258 395.309 385.344 395.048 384.299 395.048C383.281 395.048 382.38 395.309 381.597 395.831C380.839 396.328 380.239 397.02 379.795 397.907C379.351 398.795 379.129 399.827 379.129 401.002C379.129 402.203 379.351 403.261 379.795 404.175C380.239 405.062 380.839 405.754 381.597 406.251C382.38 406.747 383.281 406.995 384.299 406.995ZM401.313 411.421V390.7H406.64L406.797 394.931L405.7 395.401C405.987 394.461 406.497 393.612 407.228 392.855C407.985 392.071 408.886 391.445 409.931 390.974C410.975 390.504 412.072 390.269 413.221 390.269C414.788 390.269 416.093 390.583 417.138 391.209C418.208 391.836 419.005 392.789 419.527 394.069C420.075 395.322 420.35 396.876 420.35 398.73V411.421H414.788V399.161C414.788 398.221 414.657 397.437 414.396 396.811C414.135 396.184 413.73 395.727 413.182 395.44C412.659 395.126 412.007 394.996 411.223 395.048C410.596 395.048 410.009 395.153 409.461 395.361C408.938 395.544 408.481 395.818 408.09 396.184C407.724 396.55 407.424 396.967 407.189 397.437C406.98 397.907 406.875 398.417 406.875 398.965V411.421H404.133C403.533 411.421 402.998 411.421 402.528 411.421C402.058 411.421 401.653 411.421 401.313 411.421ZM435.472 411.813C433.487 411.813 431.711 411.343 430.145 410.402C428.578 409.462 427.338 408.183 426.424 406.564C425.536 404.945 425.092 403.104 425.092 401.041C425.092 399.004 425.536 397.176 426.424 395.557C427.338 393.912 428.578 392.62 430.145 391.68C431.711 390.739 433.487 390.269 435.472 390.269C437.326 390.269 439.023 390.609 440.564 391.288C442.104 391.967 443.306 392.907 444.167 394.108L441.112 397.79C440.747 397.294 440.29 396.85 439.741 396.458C439.193 396.04 438.592 395.714 437.939 395.479C437.313 395.244 436.66 395.126 435.981 395.126C434.91 395.126 433.957 395.388 433.122 395.91C432.312 396.406 431.672 397.098 431.202 397.986C430.732 398.874 430.497 399.892 430.497 401.041C430.497 402.164 430.732 403.169 431.202 404.057C431.698 404.919 432.364 405.624 433.2 406.172C434.036 406.694 434.976 406.956 436.02 406.956C436.699 406.956 437.339 406.864 437.939 406.681C438.54 406.472 439.101 406.172 439.624 405.781C440.172 405.389 440.668 404.919 441.112 404.37L444.128 408.052C443.24 409.175 442.013 410.089 440.446 410.794C438.879 411.473 437.221 411.813 435.472 411.813ZM458.307 411.813C456.061 411.813 454.103 411.356 452.432 410.442C450.761 409.528 449.455 408.274 448.515 406.681C447.575 405.089 447.105 403.261 447.105 401.198C447.105 399.605 447.366 398.142 447.888 396.811C448.41 395.479 449.142 394.33 450.082 393.364C451.022 392.372 452.131 391.614 453.411 391.092C454.717 390.544 456.127 390.269 457.641 390.269C459.051 390.269 460.357 390.531 461.558 391.053C462.759 391.549 463.791 392.267 464.653 393.207C465.54 394.121 466.219 395.205 466.689 396.458C467.159 397.712 467.368 399.083 467.316 400.571L467.277 402.294H450.63L449.729 398.887H462.694L462.067 399.592V398.73C462.015 398.025 461.78 397.385 461.362 396.811C460.971 396.236 460.462 395.792 459.835 395.479C459.208 395.166 458.503 395.009 457.72 395.009C456.571 395.009 455.591 395.231 454.782 395.675C453.999 396.119 453.398 396.772 452.98 397.633C452.562 398.495 452.353 399.54 452.353 400.767C452.353 402.02 452.615 403.104 453.137 404.018C453.685 404.932 454.442 405.65 455.409 406.172C456.401 406.668 457.563 406.916 458.895 406.916C459.809 406.916 460.644 406.773 461.402 406.486C462.159 406.198 462.968 405.702 463.83 404.997L466.494 408.718C465.736 409.397 464.901 409.972 463.987 410.442C463.073 410.886 462.133 411.225 461.167 411.46C460.2 411.695 459.247 411.813 458.307 411.813ZM492.76 411.813C491.036 411.813 489.483 411.343 488.099 410.402C486.715 409.462 485.618 408.183 484.808 406.564C483.999 404.945 483.594 403.091 483.594 401.002C483.594 398.913 483.999 397.072 484.808 395.479C485.644 393.86 486.767 392.593 488.177 391.68C489.587 390.739 491.193 390.269 492.995 390.269C494.013 390.269 494.94 390.426 495.776 390.739C496.638 391.027 497.382 391.431 498.008 391.954C498.661 392.476 499.21 393.077 499.654 393.755C500.097 394.434 500.411 395.166 500.594 395.949L499.419 395.753V390.7H504.941V411.421H499.34V406.446L500.594 406.329C500.385 407.06 500.045 407.752 499.575 408.405C499.105 409.058 498.518 409.645 497.813 410.167C497.134 410.664 496.363 411.068 495.502 411.382C494.64 411.669 493.726 411.813 492.76 411.813ZM494.287 406.995C495.332 406.995 496.246 406.747 497.029 406.251C497.813 405.754 498.413 405.062 498.831 404.175C499.275 403.261 499.497 402.203 499.497 401.002C499.497 399.827 499.275 398.795 498.831 397.907C498.413 397.02 497.813 396.328 497.029 395.831C496.246 395.309 495.332 395.048 494.287 395.048C493.269 395.048 492.368 395.309 491.585 395.831C490.827 396.328 490.227 397.02 489.783 397.907C489.339 398.795 489.117 399.827 489.117 401.002C489.117 402.203 489.339 403.261 489.783 404.175C490.227 405.062 490.827 405.754 491.585 406.251C492.368 406.747 493.269 406.995 494.287 406.995ZM513.299 411.421V385.452H518.861V411.421H513.299ZM509.421 395.675V390.7H523.091V395.675H509.421ZM545.856 409.502V387.253L547.306 389.878L541.587 392.659L540.451 387.449L548.089 383.611H551.653V409.502H545.856ZM541.038 411.421V406.133H556.589V411.421H541.038ZM562.268 411.421L560.975 408.209L569.083 399.239C569.527 398.769 569.997 398.221 570.494 397.594C571.016 396.967 571.512 396.328 571.982 395.675C572.478 394.996 572.87 394.343 573.157 393.716C573.444 393.064 573.588 392.476 573.588 391.954C573.588 391.353 573.457 390.831 573.196 390.387C572.935 389.917 572.556 389.551 572.06 389.29C571.564 389.029 570.951 388.898 570.219 388.898C569.54 388.898 568.901 389.081 568.3 389.447C567.699 389.786 567.138 390.296 566.616 390.974C566.094 391.653 565.637 392.476 565.245 393.442L560.858 390.974C561.38 389.46 562.124 388.141 563.091 387.018C564.057 385.896 565.206 385.021 566.537 384.394C567.869 383.767 569.292 383.454 570.807 383.454C572.4 383.48 573.836 383.82 575.116 384.472C576.395 385.125 577.4 386.039 578.132 387.214C578.863 388.389 579.228 389.747 579.228 391.288C579.228 391.862 579.163 392.45 579.032 393.05C578.928 393.651 578.732 394.278 578.445 394.931C578.184 395.583 577.831 396.275 577.387 397.007C576.97 397.712 576.447 398.469 575.821 399.278C575.22 400.062 574.528 400.884 573.745 401.746L567.517 408.522L566.733 406.133H580.364V411.421H562.268ZM594.538 411.813C592.188 411.813 590.177 411.251 588.506 410.128C586.861 409.005 585.594 407.4 584.706 405.31C583.845 403.195 583.414 400.662 583.414 397.712C583.414 394.761 583.845 392.241 584.706 390.152C585.594 388.037 586.861 386.418 588.506 385.295C590.177 384.172 592.188 383.611 594.538 383.611C596.888 383.611 598.899 384.172 600.57 385.295C602.241 386.418 603.508 388.037 604.369 390.152C605.257 392.241 605.701 394.761 605.701 397.712C605.701 400.662 605.257 403.195 604.369 405.31C603.508 407.4 602.241 409.005 600.57 410.128C598.899 411.251 596.888 411.813 594.538 411.813ZM594.538 406.76C596.287 406.76 597.645 405.976 598.611 404.41C599.578 402.843 600.061 400.61 600.061 397.712C600.061 394.761 599.578 392.489 598.611 390.896C597.645 389.303 596.287 388.507 594.538 388.507C592.762 388.507 591.391 389.303 590.425 390.896C589.485 392.489 589.015 394.761 589.015 397.712C589.015 400.61 589.485 402.843 590.425 404.41C591.391 405.976 592.762 406.76 594.538 406.76ZM625.323 411.421V389.251C625.323 387.971 625.611 386.809 626.185 385.765C626.76 384.72 627.543 383.898 628.535 383.297C629.554 382.697 630.742 382.396 632.1 382.396C633.014 382.396 633.875 382.553 634.685 382.866C635.494 383.154 636.186 383.558 636.761 384.081L635.116 388.154C634.776 387.945 634.424 387.776 634.058 387.645C633.719 387.488 633.405 387.41 633.118 387.41C632.622 387.41 632.204 387.501 631.865 387.684C631.551 387.841 631.316 388.089 631.16 388.428C631.003 388.742 630.925 389.147 630.925 389.643V411.421H628.144C627.543 411.421 627.008 411.421 626.538 411.421C626.068 411.421 625.663 411.421 625.323 411.421ZM622.229 395.91V391.209H635.39V395.91H622.229ZM639.878 420.038V390.7H645.244L645.401 395.361L644.382 395.009C644.565 394.173 645.009 393.403 645.714 392.698C646.445 391.993 647.346 391.418 648.417 390.974C649.487 390.531 650.61 390.309 651.785 390.309C653.587 390.309 655.18 390.779 656.564 391.719C657.974 392.633 659.084 393.899 659.893 395.518C660.729 397.111 661.147 398.952 661.147 401.041C661.147 403.104 660.742 404.945 659.933 406.564C659.123 408.183 658.013 409.462 656.603 410.402C655.193 411.316 653.587 411.773 651.785 411.773C650.584 411.773 649.435 411.551 648.338 411.108C647.268 410.638 646.354 410.024 645.597 409.267C644.839 408.509 644.369 407.7 644.187 406.838L645.479 406.29V420.038H639.878ZM650.532 406.995C651.55 406.995 652.451 406.747 653.235 406.251C654.018 405.754 654.632 405.062 655.076 404.175C655.52 403.261 655.741 402.216 655.741 401.041C655.741 399.866 655.52 398.834 655.076 397.947C654.632 397.059 654.018 396.367 653.235 395.871C652.477 395.375 651.576 395.126 650.532 395.126C649.487 395.126 648.573 395.375 647.79 395.871C647.007 396.341 646.393 397.033 645.949 397.947C645.505 398.834 645.283 399.866 645.283 401.041C645.283 402.216 645.505 403.261 645.949 404.175C646.393 405.062 647.007 405.754 647.79 406.251C648.573 406.747 649.487 406.995 650.532 406.995ZM673.109 411.813C671.176 411.813 669.453 411.499 667.938 410.873C666.45 410.22 665.249 409.332 664.335 408.209L667.782 405.232C668.591 406.094 669.492 406.721 670.484 407.112C671.477 407.478 672.469 407.661 673.461 407.661C673.853 407.661 674.206 407.621 674.519 407.543C674.858 407.439 675.146 407.308 675.381 407.151C675.616 406.969 675.785 406.76 675.89 406.525C676.02 406.264 676.086 405.989 676.086 405.702C676.086 405.128 675.851 404.671 675.381 404.331C675.12 404.201 674.715 404.044 674.166 403.861C673.618 403.652 672.913 403.43 672.051 403.195C670.719 402.856 669.584 402.464 668.644 402.02C667.73 401.55 666.998 401.028 666.45 400.453C665.98 399.905 665.614 399.318 665.353 398.691C665.118 398.038 665.001 397.32 665.001 396.537C665.001 395.596 665.21 394.748 665.627 393.991C666.045 393.207 666.62 392.541 667.351 391.993C668.108 391.445 668.97 391.027 669.936 390.739C670.902 390.426 671.921 390.269 672.991 390.269C674.062 390.269 675.106 390.4 676.125 390.661C677.143 390.922 678.083 391.301 678.945 391.797C679.833 392.267 680.603 392.828 681.256 393.481L678.279 396.772C677.809 396.328 677.274 395.923 676.673 395.557C676.099 395.192 675.498 394.904 674.871 394.696C674.245 394.487 673.683 394.382 673.187 394.382C672.743 394.382 672.339 394.421 671.973 394.5C671.633 394.578 671.346 394.696 671.111 394.852C670.876 395.009 670.693 395.218 670.563 395.479C670.458 395.714 670.406 395.975 670.406 396.262C670.406 396.55 670.471 396.824 670.602 397.085C670.759 397.346 670.968 397.568 671.229 397.751C671.516 397.907 671.934 398.09 672.482 398.299C673.057 398.508 673.827 398.743 674.793 399.004C676.047 399.344 677.104 399.722 677.966 400.14C678.854 400.558 679.559 401.041 680.081 401.589C680.525 402.059 680.851 402.595 681.06 403.195C681.269 403.796 681.374 404.462 681.374 405.193C681.374 406.472 681.008 407.621 680.277 408.64C679.572 409.632 678.593 410.416 677.339 410.99C676.086 411.538 674.676 411.813 673.109 411.813Z" fill="#001A72"/>
<path d="M73.3164 268.191V217.947H95.9262C99.1322 217.947 102.027 218.641 104.611 220.029C107.243 221.417 109.301 223.331 110.784 225.771C112.267 228.164 113.009 230.891 113.009 233.954C113.009 237.112 112.267 239.959 110.784 242.495C109.301 244.983 107.267 246.945 104.683 248.381C102.099 249.816 99.1801 250.534 95.9262 250.534H84.9443V268.191H73.3164ZM101.166 268.191L88.3896 245.51L100.879 243.715L115.091 268.191H101.166ZM84.9443 241.203H94.8495C96.0936 241.203 97.1703 240.94 98.0795 240.414C99.0365 239.839 99.7543 239.05 100.233 238.045C100.759 237.04 101.022 235.892 101.022 234.6C101.022 233.308 100.735 232.183 100.161 231.226C99.5868 230.221 98.7494 229.456 97.6488 228.929C96.5961 228.403 95.3041 228.14 93.7729 228.14H84.9443V241.203ZM139.252 268.909C135.041 268.909 131.38 268.072 128.27 266.397C125.16 264.674 122.743 262.354 121.021 259.435C119.298 256.468 118.437 253.094 118.437 249.314C118.437 246.395 118.915 243.715 119.872 241.275C120.829 238.835 122.169 236.729 123.892 234.959C125.614 233.14 127.648 231.753 129.993 230.796C132.385 229.791 134.993 229.288 137.817 229.288C140.496 229.288 142.937 229.767 145.138 230.724C147.387 231.681 149.325 233.021 150.952 234.743C152.579 236.466 153.823 238.5 154.684 240.844C155.545 243.189 155.928 245.749 155.833 248.524L155.761 251.611H125.399L123.748 245.151H146.43L145.21 246.515V245.079C145.114 243.883 144.731 242.83 144.061 241.921C143.439 240.964 142.602 240.222 141.549 239.696C140.496 239.17 139.3 238.906 137.96 238.906C136.094 238.906 134.491 239.289 133.151 240.055C131.859 240.773 130.878 241.849 130.208 243.285C129.538 244.672 129.203 246.395 129.203 248.453C129.203 250.558 129.634 252.4 130.495 253.98C131.404 255.511 132.696 256.707 134.371 257.568C136.094 258.43 138.128 258.86 140.472 258.86C142.099 258.86 143.535 258.621 144.779 258.143C146.071 257.664 147.459 256.851 148.942 255.702L154.325 263.311C152.842 264.603 151.263 265.655 149.588 266.469C147.913 267.282 146.191 267.88 144.42 268.263C142.697 268.694 140.975 268.909 139.252 268.909ZM177.218 268.837C174.012 268.837 171.141 268 168.604 266.325C166.116 264.603 164.13 262.258 162.647 259.291C161.164 256.276 160.422 252.879 160.422 249.099C160.422 245.223 161.164 241.801 162.647 238.835C164.13 235.868 166.164 233.547 168.748 231.872C171.332 230.15 174.275 229.288 177.577 229.288C179.395 229.288 181.046 229.551 182.529 230.078C184.06 230.604 185.4 231.346 186.549 232.303C187.697 233.212 188.678 234.289 189.492 235.533C190.305 236.729 190.903 238.021 191.286 239.409L188.917 239.122V230.078H200.33V268.191H188.702V259.004L191.286 258.932C190.903 260.272 190.281 261.54 189.42 262.736C188.558 263.933 187.506 264.985 186.262 265.895C185.017 266.804 183.63 267.521 182.098 268.048C180.567 268.574 178.94 268.837 177.218 268.837ZM180.376 259.147C182.146 259.147 183.678 258.741 184.97 257.927C186.262 257.114 187.266 255.965 187.984 254.482C188.702 252.951 189.061 251.156 189.061 249.099C189.061 247.041 188.702 245.271 187.984 243.787C187.266 242.256 186.262 241.084 184.97 240.27C183.678 239.409 182.146 238.978 180.376 238.978C178.653 238.978 177.146 239.409 175.854 240.27C174.61 241.084 173.629 242.256 172.911 243.787C172.193 245.271 171.834 247.041 171.834 249.099C171.834 251.156 172.193 252.951 172.911 254.482C173.629 255.965 174.61 257.114 175.854 257.927C177.146 258.741 178.653 259.147 180.376 259.147ZM227.187 268.909C223.503 268.909 220.201 268.048 217.282 266.325C214.363 264.603 212.042 262.258 210.32 259.291C208.645 256.276 207.808 252.879 207.808 249.099C207.808 245.318 208.645 241.945 210.32 238.978C212.042 235.963 214.363 233.595 217.282 231.872C220.201 230.15 223.503 229.288 227.187 229.288C230.585 229.288 233.695 229.886 236.518 231.083C239.389 232.279 241.662 233.954 243.337 236.107L237.093 243.572C236.423 242.806 235.633 242.088 234.724 241.419C233.815 240.749 232.81 240.222 231.709 239.839C230.609 239.457 229.46 239.265 228.264 239.265C226.446 239.265 224.843 239.696 223.455 240.557C222.067 241.371 220.991 242.519 220.225 244.003C219.459 245.486 219.077 247.185 219.077 249.099C219.077 250.917 219.459 252.568 220.225 254.051C221.038 255.535 222.139 256.707 223.527 257.568C224.914 258.43 226.494 258.86 228.264 258.86C229.508 258.86 230.657 258.717 231.709 258.43C232.762 258.095 233.719 257.616 234.58 256.994C235.49 256.372 236.327 255.606 237.093 254.697L243.265 262.234C241.639 264.292 239.366 265.918 236.447 267.115C233.576 268.311 230.489 268.909 227.187 268.909ZM252.734 268.191V220.46H264.219V268.191H252.734ZM245.987 240.127V230.078H271.612V240.127H245.987ZM302.386 268.191V217.947H313.296L339.639 253.836L337.27 253.477C337.031 251.898 336.839 250.391 336.696 248.955C336.552 247.52 336.409 246.108 336.265 244.72C336.169 243.333 336.074 241.921 335.978 240.485C335.93 239.05 335.882 237.495 335.834 235.82C335.834 234.145 335.834 232.327 335.834 230.365V217.947H347.678V268.191H336.624L309.133 231.154L312.794 231.657C313.033 233.954 313.225 235.916 313.368 237.543C313.56 239.122 313.703 240.533 313.799 241.777C313.942 243.022 314.038 244.146 314.086 245.151C314.134 246.156 314.158 247.161 314.158 248.166C314.206 249.123 314.229 250.199 314.229 251.396V268.191H302.386ZM373.133 268.837C369.927 268.837 367.055 268 364.519 266.325C362.031 264.603 360.045 262.258 358.562 259.291C357.078 256.276 356.337 252.879 356.337 249.099C356.337 245.223 357.078 241.801 358.562 238.835C360.045 235.868 362.079 233.547 364.663 231.872C367.247 230.15 370.19 229.288 373.492 229.288C375.31 229.288 376.961 229.551 378.444 230.078C379.975 230.604 381.315 231.346 382.464 232.303C383.612 233.212 384.593 234.289 385.407 235.533C386.22 236.729 386.818 238.021 387.201 239.409L384.832 239.122V230.078H396.245V268.191H384.617V259.004L387.201 258.932C386.818 260.272 386.196 261.54 385.335 262.736C384.473 263.933 383.421 264.985 382.177 265.895C380.932 266.804 379.545 267.521 378.013 268.048C376.482 268.574 374.855 268.837 373.133 268.837ZM376.291 259.147C378.061 259.147 379.593 258.741 380.885 257.927C382.177 257.114 383.181 255.965 383.899 254.482C384.617 252.951 384.976 251.156 384.976 249.099C384.976 247.041 384.617 245.271 383.899 243.787C383.181 242.256 382.177 241.084 380.885 240.27C379.593 239.409 378.061 238.978 376.291 238.978C374.568 238.978 373.061 239.409 371.769 240.27C370.525 241.084 369.544 242.256 368.826 243.787C368.108 245.271 367.749 247.041 367.749 249.099C367.749 251.156 368.108 252.951 368.826 254.482C369.544 255.965 370.525 257.114 371.769 257.927C373.061 258.741 374.568 259.147 376.291 259.147ZM409.536 268.191V220.46H421.021V268.191H409.536ZM402.789 240.127V230.078H428.414V240.127H402.789ZM435.623 268.191V230.078H447.107V268.191H435.623ZM441.365 222.541C439.212 222.541 437.513 222.039 436.269 221.034C435.073 219.981 434.475 218.498 434.475 216.584C434.475 214.861 435.097 213.449 436.341 212.349C437.585 211.248 439.26 210.698 441.365 210.698C443.518 210.698 445.193 211.224 446.39 212.277C447.586 213.282 448.184 214.717 448.184 216.584C448.184 218.354 447.562 219.79 446.318 220.89C445.121 221.991 443.471 222.541 441.365 222.541ZM469.598 268.191L453.663 230.078H466.368L475.842 258.573L473.043 258.86L482.805 230.078H495.366L478.642 268.191H469.598ZM518.465 268.909C514.254 268.909 510.593 268.072 507.483 266.397C504.373 264.674 501.956 262.354 500.234 259.435C498.511 256.468 497.65 253.094 497.65 249.314C497.65 246.395 498.128 243.715 499.085 241.275C500.042 238.835 501.382 236.729 503.105 234.959C504.827 233.14 506.861 231.753 509.206 230.796C511.598 229.791 514.206 229.288 517.029 229.288C519.709 229.288 522.15 229.767 524.351 230.724C526.6 231.681 528.538 233.021 530.165 234.743C531.792 236.466 533.036 238.5 533.897 240.844C534.758 243.189 535.141 245.749 535.045 248.524L534.974 251.611H504.612L502.961 245.151H525.643L524.422 246.515V245.079C524.327 243.883 523.944 242.83 523.274 241.921C522.652 240.964 521.815 240.222 520.762 239.696C519.709 239.17 518.513 238.906 517.173 238.906C515.307 238.906 513.704 239.289 512.364 240.055C511.072 240.773 510.091 241.849 509.421 243.285C508.751 244.672 508.416 246.395 508.416 248.453C508.416 250.558 508.847 252.4 509.708 253.98C510.617 255.511 511.909 256.707 513.584 257.568C515.307 258.43 517.34 258.86 519.685 258.86C521.312 258.86 522.748 258.621 523.992 258.143C525.284 257.664 526.671 256.851 528.155 255.702L533.538 263.311C532.055 264.603 530.476 265.655 528.801 266.469C527.126 267.282 525.403 267.88 523.633 268.263C521.91 268.694 520.188 268.909 518.465 268.909Z" fill="#001A72"/>
<path d="M566.574 268.191V217.947H589.183C592.389 217.947 595.284 218.641 597.868 220.029C600.5 221.417 602.558 223.331 604.041 225.771C605.525 228.164 606.266 230.891 606.266 233.954C606.266 237.112 605.525 239.959 604.041 242.495C602.558 244.983 600.524 246.945 597.94 248.381C595.356 249.816 592.437 250.534 589.183 250.534H578.201V268.191H566.574ZM594.423 268.191L581.647 245.51L594.136 243.715L608.348 268.191H594.423ZM578.201 241.203H588.107C589.351 241.203 590.427 240.94 591.337 240.414C592.294 239.839 593.011 239.05 593.49 238.045C594.016 237.04 594.28 235.892 594.28 234.6C594.28 233.308 593.992 232.183 593.418 231.226C592.844 230.221 592.007 229.456 590.906 228.929C589.853 228.403 588.561 228.14 587.03 228.14H578.201V241.203ZM632.509 268.909C628.298 268.909 624.638 268.072 621.527 266.397C618.417 264.674 616 262.354 614.278 259.435C612.555 256.468 611.694 253.094 611.694 249.314C611.694 246.395 612.172 243.715 613.129 241.275C614.086 238.835 615.426 236.729 617.149 234.959C618.872 233.14 620.905 231.753 623.25 230.796C625.643 229.791 628.25 229.288 631.074 229.288C633.753 229.288 636.194 229.767 638.395 230.724C640.644 231.681 642.582 233.021 644.209 234.743C645.836 236.466 647.08 238.5 647.941 240.844C648.803 243.189 649.185 245.749 649.09 248.524L649.018 251.611H618.656L617.005 245.151H639.687L638.467 246.515V245.079C638.371 243.883 637.988 242.83 637.318 241.921C636.696 240.964 635.859 240.222 634.806 239.696C633.753 239.17 632.557 238.906 631.217 238.906C629.351 238.906 627.748 239.289 626.408 240.055C625.116 240.773 624.135 241.849 623.465 243.285C622.795 244.672 622.46 246.395 622.46 248.453C622.46 250.558 622.891 252.4 623.752 253.98C624.662 255.511 625.954 256.707 627.628 257.568C629.351 258.43 631.385 258.86 633.729 258.86C635.356 258.86 636.792 258.621 638.036 258.143C639.328 257.664 640.716 256.851 642.199 255.702L647.582 263.311C646.099 264.603 644.52 265.655 642.845 266.469C641.17 267.282 639.448 267.88 637.677 268.263C635.954 268.694 634.232 268.909 632.509 268.909ZM670.475 268.837C667.269 268.837 664.398 268 661.862 266.325C659.373 264.603 657.387 262.258 655.904 259.291C654.421 256.276 653.679 252.879 653.679 249.099C653.679 245.223 654.421 241.801 655.904 238.835C657.387 235.868 659.421 233.547 662.005 231.872C664.589 230.15 667.532 229.288 670.834 229.288C672.652 229.288 674.303 229.551 675.786 230.078C677.318 230.604 678.657 231.346 679.806 232.303C680.954 233.212 681.935 234.289 682.749 235.533C683.562 236.729 684.16 238.021 684.543 239.409L682.174 239.122V230.078H693.587V268.191H681.959V259.004L684.543 258.932C684.16 260.272 683.538 261.54 682.677 262.736C681.816 263.933 680.763 264.985 679.519 265.895C678.275 266.804 676.887 267.521 675.356 268.048C673.824 268.574 672.197 268.837 670.475 268.837ZM673.633 259.147C675.403 259.147 676.935 258.741 678.227 257.927C679.519 257.114 680.524 255.965 681.241 254.482C681.959 252.951 682.318 251.156 682.318 249.099C682.318 247.041 681.959 245.271 681.241 243.787C680.524 242.256 679.519 241.084 678.227 240.27C676.935 239.409 675.403 238.978 673.633 238.978C671.91 238.978 670.403 239.409 669.111 240.27C667.867 241.084 666.886 242.256 666.168 243.787C665.45 245.271 665.092 247.041 665.092 249.099C665.092 251.156 665.45 252.951 666.168 254.482C666.886 255.965 667.867 257.114 669.111 257.927C670.403 258.741 671.91 259.147 673.633 259.147ZM703.721 268.191V230.078H714.631L714.99 237.83L712.693 238.691C713.219 236.968 714.152 235.413 715.492 234.026C716.88 232.59 718.531 231.442 720.445 230.58C722.359 229.719 724.368 229.288 726.474 229.288C729.345 229.288 731.761 229.886 733.723 231.083C735.685 232.231 737.169 233.978 738.174 236.322C739.178 238.619 739.681 241.442 739.681 244.792V268.191H728.125V245.725C728.125 244.194 727.909 242.926 727.479 241.921C727.048 240.916 726.378 240.174 725.469 239.696C724.608 239.17 723.531 238.93 722.239 238.978C721.234 238.978 720.301 239.146 719.44 239.481C718.578 239.768 717.837 240.222 717.215 240.844C716.593 241.419 716.09 242.088 715.707 242.854C715.372 243.62 715.205 244.457 715.205 245.366V268.191H709.534C708.195 268.191 707.046 268.191 706.089 268.191C705.132 268.191 704.343 268.191 703.721 268.191ZM749.928 268.191V230.078H761.412V268.191H749.928ZM755.67 222.541C753.517 222.541 751.818 222.039 750.574 221.034C749.378 219.981 748.78 218.498 748.78 216.584C748.78 214.861 749.402 213.449 750.646 212.349C751.89 211.248 753.565 210.698 755.67 210.698C757.824 210.698 759.498 211.224 760.695 212.277C761.891 213.282 762.489 214.717 762.489 216.584C762.489 218.354 761.867 219.79 760.623 220.89C759.427 221.991 757.776 222.541 755.67 222.541ZM772.131 268.191V230.078H783.041L783.4 236.968L781.893 237.04C782.467 235.796 783.185 234.695 784.046 233.738C784.956 232.781 785.96 231.992 787.061 231.37C788.209 230.7 789.382 230.197 790.578 229.862C791.822 229.527 793.066 229.36 794.31 229.36C796.177 229.36 797.875 229.647 799.407 230.221C800.938 230.796 802.278 231.729 803.426 233.021C804.575 234.265 805.484 235.963 806.154 238.117L804.359 237.973L804.933 236.825C805.556 235.676 806.345 234.648 807.302 233.738C808.307 232.781 809.408 231.992 810.604 231.37C811.8 230.7 813.044 230.197 814.336 229.862C815.628 229.527 816.872 229.36 818.069 229.36C821.083 229.36 823.596 229.958 825.605 231.154C827.615 232.303 829.122 234.049 830.127 236.394C831.18 238.739 831.706 241.586 831.706 244.936V268.191H820.15V245.869C820.15 244.337 819.935 243.069 819.504 242.065C819.074 241.06 818.428 240.318 817.566 239.839C816.753 239.313 815.724 239.05 814.48 239.05C813.475 239.05 812.542 239.217 811.681 239.552C810.867 239.887 810.149 240.342 809.527 240.916C808.953 241.49 808.498 242.16 808.163 242.926C807.828 243.691 807.661 244.553 807.661 245.51V268.191H796.105V245.797C796.105 244.361 795.89 243.141 795.459 242.136C795.028 241.131 794.382 240.366 793.521 239.839C792.66 239.313 791.655 239.05 790.506 239.05C789.501 239.05 788.568 239.217 787.707 239.552C786.893 239.887 786.176 240.342 785.554 240.916C784.979 241.49 784.525 242.16 784.19 242.926C783.855 243.691 783.687 244.529 783.687 245.438V268.191H772.131ZM855.315 268.837C852.109 268.837 849.238 268 846.702 266.325C844.213 264.603 842.227 262.258 840.744 259.291C839.261 256.276 838.519 252.879 838.519 249.099C838.519 245.223 839.261 241.801 840.744 238.835C842.227 235.868 844.261 233.547 846.845 231.872C849.429 230.15 852.372 229.288 855.674 229.288C857.492 229.288 859.143 229.551 860.626 230.078C862.158 230.604 863.497 231.346 864.646 232.303C865.794 233.212 866.775 234.289 867.589 235.533C868.402 236.729 869 238.021 869.383 239.409L867.014 239.122V230.078H878.427V268.191H866.799V259.004L869.383 258.932C869 260.272 868.378 261.54 867.517 262.736C866.656 263.933 865.603 264.985 864.359 265.895C863.115 266.804 861.727 267.521 860.196 268.048C858.664 268.574 857.037 268.837 855.315 268.837ZM858.473 259.147C860.244 259.147 861.775 258.741 863.067 257.927C864.359 257.114 865.364 255.965 866.081 254.482C866.799 252.951 867.158 251.156 867.158 249.099C867.158 247.041 866.799 245.271 866.081 243.787C865.364 242.256 864.359 241.084 863.067 240.27C861.775 239.409 860.244 238.978 858.473 238.978C856.75 238.978 855.243 239.409 853.951 240.27C852.707 241.084 851.726 242.256 851.008 243.787C850.29 245.271 849.932 247.041 849.932 249.099C849.932 251.156 850.29 252.951 851.008 254.482C851.726 255.965 852.707 257.114 853.951 257.927C855.243 258.741 856.75 259.147 858.473 259.147ZM891.719 268.191V220.46H903.203V268.191H891.719ZM884.972 240.127V230.078H910.596V240.127H884.972ZM934.968 268.909C930.757 268.909 927.097 268.072 923.986 266.397C920.876 264.674 918.46 262.354 916.737 259.435C915.014 256.468 914.153 253.094 914.153 249.314C914.153 246.395 914.631 243.715 915.588 241.275C916.546 238.835 917.885 236.729 919.608 234.959C921.331 233.14 923.364 231.753 925.709 230.796C928.102 229.791 930.71 229.288 933.533 229.288C936.212 229.288 938.653 229.767 940.854 230.724C943.103 231.681 945.041 233.021 946.668 234.743C948.295 236.466 949.539 238.5 950.4 240.844C951.262 243.189 951.645 245.749 951.549 248.524L951.477 251.611H921.115L919.464 245.151H942.146L940.926 246.515V245.079C940.83 243.883 940.447 242.83 939.777 241.921C939.155 240.964 938.318 240.222 937.265 239.696C936.212 239.17 935.016 238.906 933.676 238.906C931.81 238.906 930.207 239.289 928.867 240.055C927.575 240.773 926.594 241.849 925.924 243.285C925.254 244.672 924.92 246.395 924.92 248.453C924.92 250.558 925.35 252.4 926.211 253.98C927.121 255.511 928.413 256.707 930.087 257.568C931.81 258.43 933.844 258.86 936.189 258.86C937.815 258.86 939.251 258.621 940.495 258.143C941.787 257.664 943.175 256.851 944.658 255.702L950.041 263.311C948.558 264.603 946.979 265.655 945.304 266.469C943.629 267.282 941.907 267.88 940.136 268.263C938.414 268.694 936.691 268.909 934.968 268.909ZM973.293 268.981C969.991 268.981 967.048 268.144 964.464 266.469C961.928 264.746 959.918 262.401 958.435 259.435C956.952 256.42 956.21 252.999 956.21 249.17C956.21 245.342 956.952 241.945 958.435 238.978C959.918 235.963 961.952 233.595 964.536 231.872C967.12 230.15 970.087 229.288 973.436 229.288C975.159 229.288 976.81 229.551 978.389 230.078C979.968 230.604 981.404 231.322 982.696 232.231C983.988 233.14 985.04 234.193 985.854 235.389C986.667 236.538 987.146 237.734 987.289 238.978L984.562 239.624V215.076H996.118V268.191H985.423L984.777 259.506L987.074 259.865C986.93 261.062 986.452 262.21 985.638 263.311C984.873 264.411 983.868 265.392 982.624 266.253C981.38 267.067 979.944 267.713 978.317 268.191C976.738 268.718 975.063 268.981 973.293 268.981ZM976.236 259.435C978.006 259.435 979.537 259.004 980.829 258.143C982.121 257.281 983.102 256.085 983.772 254.554C984.49 253.023 984.849 251.228 984.849 249.17C984.849 247.065 984.49 245.247 983.772 243.715C983.102 242.184 982.121 240.988 980.829 240.127C979.537 239.265 978.006 238.835 976.236 238.835C974.465 238.835 972.934 239.265 971.642 240.127C970.398 240.988 969.417 242.184 968.699 243.715C967.981 245.247 967.622 247.065 967.622 249.17C967.622 251.228 967.981 253.023 968.699 254.554C969.417 256.085 970.398 257.281 971.642 258.143C972.934 259.004 974.465 259.435 976.236 259.435Z" fill="#782AEB"/>
<rect x="551.928" y="199.008" width="457.459" height="87.287" stroke="#001A72" stroke-width="2.24303" stroke-dasharray="11.22 11.22"/>
<rect x="547.624" y="195.486" width="11.2152" height="11.2152" fill="#FCFCFF" stroke="#001A72" stroke-width="2.24303"/>
<rect x="547.624" y="279.6" width="11.2152" height="11.2152" fill="#FCFCFF" stroke="#001A72" stroke-width="2.24303"/>
<rect x="1004.74" y="192.122" width="11.2152" height="11.2152" fill="#FCFCFF" stroke="#001A72" stroke-width="2.24303"/>
<rect x="1004.74" y="279.6" width="11.2152" height="11.2152" fill="#FCFCFF" stroke="#001A72" stroke-width="2.24303"/>
</g>
<defs>
<linearGradient id="paint0_linear_105_33023" x1="600" y1="0" x2="600" y2="760.023" gradientUnits="userSpaceOnUse">
<stop stop-color="#D1BBF3"/>
<stop offset="0.463542" stop-color="#FFD2D7"/>
<stop offset="1" stop-color="#FFF1B2"/>
</linearGradient>
<linearGradient id="paint1_linear_105_33023" x1="613.75" y1="898.081" x2="596.171" y2="411.955" gradientUnits="userSpaceOnUse">
<stop stop-color="#FCFCFF"/>
<stop offset="1" stop-color="#FCFCFF" stop-opacity="0"/>
</linearGradient>
<linearGradient id="paint2_linear_105_33023" x1="653.781" y1="337.744" x2="1025.13" y2="373.423" gradientUnits="userSpaceOnUse">
<stop stop-color="white"/>
<stop offset="0.135417" stop-color="white" stop-opacity="0.864583"/>
<stop offset="1" stop-color="white" stop-opacity="0"/>
</linearGradient>
<linearGradient id="paint3_linear_105_33023" x1="-1.59217" y1="598.297" x2="834.525" y2="544.308" gradientUnits="userSpaceOnUse">
<stop stop-color="white"/>
<stop offset="1" stop-color="white" stop-opacity="0"/>
</linearGradient>
<linearGradient id="paint4_linear_105_33023" x1="631.019" y1="-159.647" x2="929.274" y2="182.737" gradientUnits="userSpaceOnUse">
<stop stop-color="#FFD61E"/>
<stop offset="0.0001" stop-color="#FFE04B"/>
<stop offset="1" stop-color="#FF6259"/>
</linearGradient>
<linearGradient id="paint5_linear_105_33023" x1="475.28" y1="-89.6103" x2="475.28" y2="730.361" gradientUnits="userSpaceOnUse">
<stop stop-color="#782AEB"/>
<stop offset="1" stop-color="#FF6259"/>
</linearGradient>
<linearGradient id="paint6_linear_105_33023" x1="-84.6875" y1="228.358" x2="779.598" y2="115.687" gradientUnits="userSpaceOnUse">
<stop stop-color="white"/>
<stop offset="1" stop-color="white" stop-opacity="0"/>
</linearGradient>
<clipPath id="clip0_105_33023">
<rect width="1200" height="630" fill="white"/>
</clipPath>
<clipPath id="clip1_105_33023">
<rect width="1200" height="898.081" fill="white" transform="translate(0 -49)"/>
</clipPath>
</defs>
</svg>
